<?xml version="1.0" encoding="utf-8"?>
<svg x="0pt" y="0pt" width="400pt" height="400pt" viewBox="0 0 400 400" xmlns="http://www.w3.org/2000/svg" xmlns:xlink="http://www.w3.org/1999/xlink">
  <g id="1">
    <title>D100</title>
    <g id="2">
      <title>Group</title>
      <defs>
        <title>Path</title>
        <g id="3">
          <defs>
            <path id="4" d="M80.5,238.5 C80.5,238.5,42.5,278.5,42.5,278.5 C42.5,278.5,153.5,305.5,153.5,305.5 C153.5,305.5,139.5,270.5,139.5,270.5 C139.5,270.5,80.5,238.5,80.5,238.5 z"/>
          </defs>
          <use xlink:href="#4" style="fill:#20577f;fill-opacity:1;fill-rule:nonzero;opacity:1;stroke:none;"/>
          <use xlink:href="#4" style="fill:none;opacity:1;stroke:#000000;stroke-linecap:butt;stroke-linejoin:miter;stroke-miterlimit:10;stroke-opacity:1;stroke-width:1;"/>
        </g>
      </defs>
      <use xlink:href="#3"/>
      <defs>
        <title>Path</title>
        <g id="5">
          <defs>
            <path id="6" d="M182.5,159.5 C182.5,159.5,139.5,270.5,139.5,270.5 C139.5,270.5,153.5,305.5,153.5,305.5 C153.5,305.5,182,284,182,284 C182,284,182.5,159.5,182.5,159.5 z"/>
          </defs>
          <use xlink:href="#6" style="fill:#2a74a9;fill-opacity:1;fill-rule:nonzero;opacity:1;stroke:none;"/>
          <use xlink:href="#6" style="fill:none;opacity:1;stroke:#000000;stroke-linecap:butt;stroke-linejoin:miter;stroke-miterlimit:10;stroke-opacity:1;stroke-width:1;"/>
        </g>
      </defs>
      <use xlink:href="#5"/>
      <defs>
        <title>Path</title>
        <g id="7">
          <defs>
            <path id="8" d="M68.5,175.5 C68.5,175.5,80.5,238.5,80.5,238.5 C80.5,238.5,42.5,278.5,42.5,278.5 C42.5,278.5,46.5,155.5,46.5,155.5 C46.5,155.5,68.5,175.5,68.5,175.5 z"/>
          </defs>
          <use xlink:href="#8" style="fill:#20577f;fill-opacity:1;fill-rule:nonzero;opacity:1;stroke:none;"/>
          <use xlink:href="#8" style="fill:none;opacity:1;stroke:#000000;stroke-linecap:butt;stroke-linejoin:miter;stroke-miterlimit:10;stroke-opacity:1;stroke-width:1;"/>
        </g>
      </defs>
      <use xlink:href="#7"/>
      <defs>
        <title>Path</title>
        <g id="9">
          <defs>
            <path id="10" d="M68.5,175.5 C68.5,175.5,46.5,155.5,46.5,155.5 C46.5,155.5,72.5,136.5,72.5,136.5 C72.5,136.5,182.5,159.5,182.5,159.5 C182.5,159.5,68.5,175.5,68.5,175.5 z"/>
          </defs>
          <use xlink:href="#10" style="fill:#3da8f4;fill-opacity:1;fill-rule:nonzero;opacity:1;stroke:none;"/>
          <use xlink:href="#10" style="fill:none;opacity:1;stroke:#000000;stroke-linecap:butt;stroke-linejoin:miter;stroke-miterlimit:10;stroke-opacity:1;stroke-width:1;"/>
        </g>
      </defs>
      <use xlink:href="#9"/>
      <defs>
        <title>Path</title>
        <g id="11">
          <defs>
            <path id="12" d="M80.5,238.5 C80.5,238.5,139.5,270.5,139.5,270.5 C139.5,270.5,182.5,159.5,182.5,159.5 C182.5,159.5,68.5,175.5,68.5,175.5 C68.5,175.5,80.5,238.5,80.5,238.5 z"/>
          </defs>
          <use xlink:href="#12" style="fill:#3da8f4;fill-opacity:1;fill-rule:nonzero;opacity:1;stroke:none;"/>
          <use xlink:href="#12" style="fill:none;opacity:1;stroke:#000000;stroke-linecap:butt;stroke-linejoin:miter;stroke-miterlimit:10;stroke-opacity:1;stroke-width:1;"/>
        </g>
      </defs>
      <use xlink:href="#11"/>
      <defs>
        <title>Text Copy 2</title>
        <g id="13">
          <defs>
            <path id="14" d="M87.6087,157.837 C82.5816,157.473,78.5899,156.419,75.6336,154.675 C73.6468,153.498,72.7086,152.149,72.8188,150.626 C72.9371,148.994,74.0421,147.691,76.134,146.718 C78.9589,145.392,82.8347,144.908,87.7613,145.265 C95.2517,145.807,99.8954,147.628,101.692,150.726 C101.692,150.726,102.069,150.754,102.069,150.754 C103.005,149.697,104.514,148.926,106.596,148.44 C108.677,147.955,111.126,147.814,113.941,148.018 C117.862,148.302,121.032,149.025,123.449,150.186 C125.866,151.348,127.019,152.708,126.906,154.267 C126.806,155.643,125.819,156.705,123.946,157.454 C121.239,158.549,117.824,158.947,113.702,158.648 C110.736,158.434,108.107,157.921,105.816,157.109 C103.525,156.298,102.163,155.397,101.729,154.407 C101.729,154.407,101.425,154.413,101.425,154.413 C99.6042,157.231,94.9986,158.372,87.6087,157.837 z M113.748,155.914 C118.222,156.238,121.536,156.183,123.69,155.749 C124.972,155.491,125.641,154.978,125.697,154.207 C125.822,152.483,121.938,151.335,114.046,150.764 C106.354,150.207,102.441,150.854,102.307,152.707 C102.247,153.532,103.035,154.17,104.67,154.62 C106.801,155.199,109.827,155.63,113.748,155.914 z M87.0579,154.976 C96.2073,155.639,100.863,154.852,101.025,152.614 C101.106,151.495,100,150.539,97.7079,149.746 C95.4155,148.953,92.2081,148.408,88.0859,148.109 C83.8128,147.8,80.421,147.881,77.9106,148.354 C75.4001,148.827,74.1037,149.632,74.0214,150.769 C73.951,151.741,74.6532,152.511,76.1282,153.079 C78.488,153.987,82.1313,154.62,87.0579,154.976 z"/>
          </defs>
          <use xlink:href="#14" style="fill:#ffffff;fill-opacity:1;fill-rule:nonzero;opacity:1;stroke:none;"/>
        </g>
      </defs>
      <use xlink:href="#13"/>
      <defs>
        <title>Text Copy 1</title>
        <g id="15">
          <defs>
            <path id="16" d="M48.414,207.102 C48.99,204.046,50.5301,201.629,53.0341,199.851 C55.7986,197.894,58.9784,197.254,62.5736,197.932 C65.5122,198.486,67.5166,199.702,68.5868,201.582 C69.2678,202.778,69.4834,204.039,69.2336,205.364 C69.0184,206.506,68.5418,207.359,67.8038,207.926 C67.0658,208.492,66.181,208.678,65.1493,208.483 C64.3365,208.33,63.7164,207.927,63.2891,207.275 C62.8617,206.622,62.7279,205.873,62.8875,205.026 C63.1304,203.737,64.0559,202.863,65.664,202.404 C66.3135,202.221,66.666,201.982,66.7216,201.688 C66.8118,201.209,66.4869,200.7,65.747,200.16 C65.007,199.62,64.1525,199.259,63.1834,199.076 C60.8074,198.628,58.6966,199.222,56.8507,200.857 C55.0049,202.492,53.7905,204.855,53.2075,207.948 C52.0346,214.171,53.8241,217.73,58.576,218.626 C59.0449,218.714,59.3923,218.761,59.618,218.765 C59.618,218.765,59.9463,218.827,59.9463,218.827 C60.3527,218.904,60.5247,219.108,60.4622,219.439 C60.4136,219.697,60.0003,219.829,59.2223,219.834 C56.9645,219.79,55.0976,220.42,53.6217,221.724 C52.1457,223.028,51.1822,224.877,50.7311,227.271 C50.2869,229.627,50.447,231.611,51.2115,233.223 C51.9759,234.835,53.2335,235.806,54.9842,236.136 C56.2659,236.378,57.4443,236.267,58.5192,235.802 C59.5942,235.337,60.2115,234.681,60.3711,233.835 C60.4336,233.503,60.2564,233.241,59.8395,233.048 C57.8872,232.07,57.0465,230.863,57.3171,229.427 C57.6711,227.549,58.6765,226.766,60.3334,227.079 C61.3963,227.279,62.1788,227.808,62.6809,228.665 C63.1829,229.522,63.3194,230.558,63.0904,231.773 C62.7157,233.762,61.6748,235.291,59.9678,236.361 C58.2608,237.431,56.1099,237.721,53.5151,237.232 C50.5452,236.672,48.4487,235.343,47.2257,233.244 C46.0027,231.145,45.6167,228.899,46.0678,226.506 C46.6924,223.192,48.4826,220.994,51.4383,219.911 C52.4802,219.536,54.0832,219.361,56.2472,219.388 C56.2472,219.388,56.32,219.001,56.32,219.001 C53.7461,218.402,51.7799,217.326,50.4215,215.774 C48.4239,213.491,47.7547,210.6,48.414,207.102 z"/>
          </defs>
          <use xlink:href="#16" style="fill:#7f7f7f;fill-opacity:0.73286;fill-rule:nonzero;opacity:1;stroke:none;"/>
        </g>
      </defs>
      <use xlink:href="#15"/>
      <defs>
        <title>Text Copy 1</title>
        <g id="17">
          <defs>
            <path id="18" d="M168.853,266.417 C168.749,266.865,168.572,267.06,168.322,267.002 C168.097,266.951,168.013,266.66,168.07,266.13 C168.126,265.6,168.356,264.177,168.759,261.862 C168.791,261.491,168.754,261.199,168.645,260.985 C168.417,260.602,167.791,260.292,166.766,260.056 C166.491,259.992,166.223,259.954,165.963,259.941 C165.963,259.941,163.563,270.508,163.563,270.508 C163.564,271.075,163.692,271.459,163.949,271.659 C164.205,271.86,164.896,272.091,166.021,272.35 C166.571,272.477,166.876,272.642,166.934,272.844 C166.939,272.94,166.92,273.077,166.879,273.257 C166.806,273.57,166.27,273.612,165.27,273.381 C164.27,273.15,161.459,272.549,156.838,271.576 C156.578,271.563,156.297,271.522,155.997,271.453 C155.497,271.337,155.299,271.056,155.403,270.607 C155.506,270.159,155.915,270.041,156.63,270.253 C157.47,270.494,158.265,270.583,159.017,270.521 C159.338,270.501,159.58,270.308,159.743,269.945 C159.906,269.581,160.137,268.749,160.437,267.449 C160.437,267.449,162.316,259.312,162.316,259.312 C161.826,259.151,161.256,258.996,160.606,258.846 C160.606,258.846,159.069,258.491,159.069,258.491 C158.719,258.41,158.326,258.343,157.891,258.29 C157.515,258.203,157.278,258.149,157.178,258.126 C157.178,258.126,152.462,256.824,152.462,256.824 C152.122,256.699,151.988,256.479,152.061,256.165 C152.112,255.941,155.021,251.725,160.787,243.517 C162.61,240.869,166.628,235.043,172.841,226.042 C173.119,225.634,173.346,225.45,173.521,225.49 C173.771,225.548,173.798,226.003,173.601,226.855 C173.601,226.855,166.304,258.462,166.304,258.462 C166.304,258.462,166.679,258.548,166.679,258.548 C167.529,258.744,168.219,258.809,168.748,258.742 C169.277,258.676,169.624,258.284,169.79,257.566 C170.417,254.736,170.627,253.769,170.42,254.666 C170.817,253.058,171.141,252.283,171.391,252.34 C171.741,252.421,171.771,253.089,171.482,254.344 C171.482,254.344,170.783,257.371,170.783,257.371 C170.783,257.371,169.703,262.221,169.703,262.221 C169.345,263.886,169.129,264.934,169.056,265.366 C168.982,265.797,168.915,266.148,168.853,266.417 z M168.239,234.683 C167.823,235.343,166.982,236.589,165.716,238.422 C163.985,240.903,161.38,244.599,157.903,249.51 C157.903,249.51,153.734,255.418,153.734,255.418 C154.628,255.766,156.6,256.292,159.651,256.996 C160.726,257.245,161.744,257.456,162.704,257.63 C162.704,257.63,163.806,252.856,163.806,252.856 C164.324,250.614,165.06,247.597,166.015,243.803 C167.125,239.337,167.866,236.297,168.239,234.683 z"/>
          </defs>
          <use xlink:href="#18" style="fill:#818181;fill-opacity:0.81678;fill-rule:nonzero;opacity:1;stroke:none;"/>
        </g>
      </defs>
      <use xlink:href="#17"/>
      <defs>
        <title>Text Copy</title>
        <g id="19">
          <defs>
            <path id="20" d="M80.8585,261.511 C81.0748,261.573,84.0389,263.961,89.7508,268.675 C92.9722,271.323,95.5352,273.237,97.4398,274.418 C99.3443,275.598,101.324,276.48,103.379,277.063 C104.424,277.36,106.528,277.77,109.69,278.294 C110.806,278.477,111.743,278.676,112.5,278.891 C115.059,279.617,116.153,280.634,115.782,281.943 C115.34,283.498,113.155,283.718,109.226,282.603 C105.586,281.57,101.117,279.062,95.8209,275.079 C92.4853,272.559,88.6596,269.433,84.3436,265.701 C84.3436,265.701,82.7466,271.329,82.7466,271.329 C81.9201,274.242,81.4618,275.926,81.3718,276.38 C81.2537,276.934,81.2731,277.346,81.4298,277.617 C81.5866,277.888,81.8419,278.121,82.1959,278.314 C82.5499,278.508,83.7627,279.072,85.8344,280.007 C86.239,280.229,86.4132,280.438,86.3572,280.635 C86.2871,280.882,86.0358,280.944,85.6033,280.822 C85.1707,280.699,84.4853,280.438,83.5471,280.038 C81.4253,279.143,79.6,278.438,78.071,277.924 C76.9676,277.558,76.2381,277.177,75.8826,276.783 C75.9316,276.61,76.1113,276.115,76.4215,275.296 C77.098,273.461,77.5553,272.123,77.7935,271.284 C77.7935,271.284,79.8602,263.588,79.8602,263.588 C79.9162,263.391,79.9577,263.176,79.9847,262.944 C80.0408,262.746,80.0758,262.623,80.0898,262.573 C80.3139,261.783,80.5702,261.429,80.8585,261.511 z"/>
          </defs>
          <use xlink:href="#20" style="fill:#818181;fill-opacity:0.79669;fill-rule:nonzero;opacity:1;stroke:none;"/>
        </g>
      </defs>
      <use xlink:href="#19"/>
      <defs>
        <title>Text</title>
        <g id="21">
          <defs>
            <path id="22" d="M132.36,218.558 C129.046,221.18,125.556,223.198,121.891,224.612 C118.226,226.026,114.873,226.647,111.83,226.475 C108.556,226.317,105.883,224.927,103.809,222.306 C100.971,218.72,100.531,214.26,102.487,208.927 C104.444,203.593,108.383,198.584,114.304,193.9 C121.156,188.478,127.852,185.844,134.392,185.997 C138.33,186.077,141.432,187.549,143.697,190.411 C146.371,193.791,146.842,197.792,145.11,202.414 C142.978,208.139,138.728,213.52,132.36,218.558 z M129.951,211.38 C135.5,206.99,139.63,202.797,142.342,198.801 C144.415,195.758,144.593,193.151,142.874,190.978 C139.436,186.633,131.479,189.395,119.004,199.266 C105.933,209.607,101.211,217.072,104.841,221.659 C106.532,223.797,109.646,223.829,114.181,221.755 C118.326,219.877,123.583,216.418,129.951,211.38 z"/>
          </defs>
          <use xlink:href="#22" style="fill:#ffffff;fill-opacity:1;fill-rule:nonzero;opacity:1;stroke:none;"/>
        </g>
      </defs>
      <use xlink:href="#21"/>
    </g>
    <g id="23">
      <title>Group Copy</title>
      <defs>
        <title>Path</title>
        <g id="24">
          <defs>
            <path id="25" d="M315.123,245.18 C315.123,245.18,355.477,282.804,355.477,282.804 C355.477,282.804,381.437,171.556,381.437,171.556 C381.437,171.556,346.57,185.883,346.57,185.883 C346.57,185.883,315.123,245.18,315.123,245.18 z"/>
          </defs>
          <use xlink:href="#25" style="fill:#191919;fill-opacity:1;fill-rule:nonzero;opacity:1;stroke:none;"/>
          <use xlink:href="#25" style="fill:none;opacity:1;stroke:#000000;stroke-linecap:butt;stroke-linejoin:miter;stroke-miterlimit:10;stroke-opacity:1;stroke-width:1;"/>
        </g>
      </defs>
      <use xlink:href="#24"/>
      <defs>
        <title>Path</title>
        <g id="26">
          <defs>
            <path id="27" d="M235.172,143.923 C235.172,143.923,346.57,185.883,346.57,185.883 C346.57,185.883,381.437,171.556,381.437,171.556 C381.437,171.556,359.672,143.259,359.672,143.259 C359.672,143.259,235.172,143.923,235.172,143.923 z"/>
          </defs>
          <use xlink:href="#27" style="fill:#4b4b4b;fill-opacity:1;fill-rule:nonzero;opacity:1;stroke:none;"/>
          <use xlink:href="#27" style="fill:none;opacity:1;stroke:#000000;stroke-linecap:butt;stroke-linejoin:miter;stroke-miterlimit:10;stroke-opacity:1;stroke-width:1;"/>
        </g>
      </defs>
      <use xlink:href="#26"/>
      <defs>
        <title>Path</title>
        <g id="28">
          <defs>
            <path id="29" d="M252.238,257.768 C252.238,257.768,315.123,245.18,315.123,245.18 C315.123,245.18,355.477,282.804,355.477,282.804 C355.477,282.804,232.445,279.954,232.445,279.954 C232.445,279.954,252.238,257.768,252.238,257.768 z"/>
          </defs>
          <use xlink:href="#29" style="fill:#181818;fill-opacity:1;fill-rule:nonzero;opacity:1;stroke:none;"/>
          <use xlink:href="#29" style="fill:none;opacity:1;stroke:#000000;stroke-linecap:butt;stroke-linejoin:miter;stroke-miterlimit:10;stroke-opacity:1;stroke-width:1;"/>
        </g>
      </defs>
      <use xlink:href="#28"/>
      <defs>
        <title>Path</title>
        <g id="30">
          <defs>
            <path id="31" d="M252.238,257.768 C252.238,257.768,232.445,279.954,232.445,279.954 C232.445,279.954,213.202,254.133,213.202,254.133 C213.202,254.133,235.172,143.923,235.172,143.923 C235.172,143.923,252.238,257.768,252.238,257.768 z"/>
          </defs>
          <use xlink:href="#31" style="fill:#7f7f7f;fill-opacity:1;fill-rule:nonzero;opacity:1;stroke:none;"/>
          <use xlink:href="#31" style="fill:none;opacity:1;stroke:#000000;stroke-linecap:butt;stroke-linejoin:miter;stroke-miterlimit:10;stroke-opacity:1;stroke-width:1;"/>
        </g>
      </defs>
      <use xlink:href="#30"/>
      <defs>
        <title>Path</title>
        <g id="32">
          <defs>
            <path id="33" d="M315.123,245.18 C315.123,245.18,346.57,185.883,346.57,185.883 C346.57,185.883,235.172,143.923,235.172,143.923 C235.172,143.923,252.238,257.768,252.238,257.768 C252.238,257.768,315.123,245.18,315.123,245.18 z"/>
          </defs>
          <use xlink:href="#33" style="fill:#7f7f7f;fill-opacity:1;fill-rule:nonzero;opacity:1;stroke:none;"/>
          <use xlink:href="#33" style="fill:none;opacity:1;stroke:#000000;stroke-linecap:butt;stroke-linejoin:miter;stroke-miterlimit:10;stroke-opacity:1;stroke-width:1;"/>
        </g>
      </defs>
      <use xlink:href="#32"/>
      <defs>
        <title>Text Copy 2</title>
        <g id="34">
          <defs>
            <path id="35" d="M234.397,238.826 C234.08,243.856,233.063,247.857,231.347,250.83 C230.189,252.827,228.848,253.778,227.325,253.682 C225.692,253.579,224.379,252.487,223.386,250.404 C222.034,247.591,221.513,243.72,221.824,238.791 C222.296,231.295,224.073,226.635,227.155,224.809 C227.155,224.809,227.179,224.432,227.179,224.432 C226.113,223.506,225.328,222.005,224.823,219.927 C224.318,217.85,224.155,215.403,224.332,212.586 C224.579,208.663,225.273,205.487,226.411,203.058 C227.55,200.63,228.9,199.465,230.46,199.564 C231.836,199.651,232.908,200.627,233.675,202.494 C234.794,205.19,235.224,208.601,234.964,212.726 C234.777,215.694,234.289,218.327,233.499,220.626 C232.709,222.924,231.821,224.295,230.835,224.738 C230.835,224.738,230.844,225.042,230.844,225.042 C233.679,226.836,234.863,231.431,234.397,238.826 z M232.229,212.705 C232.512,208.228,232.426,204.915,231.971,202.765 C231.702,201.485,231.182,200.821,230.411,200.773 C228.686,200.664,227.574,204.559,227.077,212.456 C226.592,220.153,227.276,224.059,229.129,224.176 C229.955,224.228,230.586,223.434,231.021,221.795 C231.579,219.659,231.982,216.629,232.229,212.705 z M231.542,239.403 C232.119,230.248,231.288,225.6,229.049,225.459 C227.929,225.388,226.984,226.503,226.212,228.803 C225.441,231.102,224.925,234.315,224.665,238.439 C224.396,242.715,224.509,246.106,225.005,248.612 C225.501,251.118,226.318,252.407,227.456,252.478 C228.429,252.54,229.192,251.83,229.746,250.35 C230.632,247.982,231.231,244.333,231.542,239.403 z"/>
          </defs>
          <use xlink:href="#35" style="fill:#ffffff;fill-opacity:1;fill-rule:nonzero;opacity:1;stroke:none;"/>
        </g>
      </defs>
      <use xlink:href="#34"/>
      <defs>
        <title>Text Copy 1</title>
        <g id="36">
          <defs>
            <path id="37" d="M284.026,277.558 C280.965,277.01,278.534,275.493,276.733,273.006 C274.75,270.26,274.08,267.086,274.724,263.485 C275.251,260.541,276.448,258.525,278.318,257.438 C279.507,256.745,280.766,256.518,282.094,256.755 C283.237,256.96,284.095,257.428,284.669,258.161 C285.242,258.894,285.436,259.777,285.251,260.81 C285.106,261.625,284.709,262.248,284.06,262.682 C283.412,263.115,282.663,263.256,281.815,263.104 C280.524,262.874,279.641,261.956,279.167,260.352 C278.978,259.705,278.736,259.354,278.441,259.302 C277.962,259.216,277.455,259.546,276.923,260.291 C276.39,261.035,276.036,261.893,275.863,262.864 C275.437,265.244,276.051,267.349,277.703,269.18 C279.354,271.01,281.73,272.203,284.828,272.757 C291.061,273.871,294.604,272.049,295.455,267.289 C295.539,266.819,295.582,266.471,295.584,266.245 C295.584,266.245,295.643,265.916,295.643,265.916 C295.716,265.509,295.918,265.335,296.25,265.395 C296.508,265.441,296.644,265.853,296.657,266.631 C296.634,268.889,297.281,270.75,298.599,272.214 C299.917,273.677,301.775,274.624,304.172,275.052 C306.533,275.474,308.516,275.296,310.12,274.516 C311.725,273.737,312.685,272.47,312.998,270.716 C313.228,269.432,313.105,268.255,312.63,267.185 C312.156,266.114,311.494,265.503,310.646,265.351 C310.314,265.292,310.053,265.472,309.864,265.89 C308.905,267.851,307.706,268.704,306.267,268.446 C304.386,268.11,303.594,267.112,303.891,265.452 C304.081,264.387,304.602,263.6,305.455,263.09 C306.307,262.58,307.342,262.434,308.559,262.651 C310.551,263.007,312.09,264.034,313.176,265.731 C314.262,267.428,314.572,269.576,314.108,272.175 C313.576,275.15,312.266,277.259,310.179,278.502 C308.091,279.744,305.849,280.151,303.451,279.722 C300.132,279.129,297.917,277.359,296.807,274.414 C296.422,273.375,296.232,271.774,296.239,269.61 C296.239,269.61,295.851,269.541,295.851,269.541 C295.276,272.12,294.218,274.096,292.679,275.469 C290.415,277.488,287.53,278.184,284.026,277.558 z"/>
          </defs>
          <use xlink:href="#37" style="fill:#7f7f7f;fill-opacity:0.73286;fill-rule:nonzero;opacity:1;stroke:none;"/>
        </g>
      </defs>
      <use xlink:href="#36"/>
      <defs>
        <title>Text Copy 1</title>
        <g id="38">
          <defs>
            <path id="39" d="M342.212,156.57 C342.661,156.669,342.858,156.844,342.803,157.095 C342.753,157.32,342.463,157.407,341.932,157.355 C341.402,157.304,339.977,157.087,337.658,156.706 C337.288,156.677,336.996,156.718,336.783,156.828 C336.402,157.059,336.098,157.689,335.871,158.716 C335.81,158.991,335.774,159.26,335.764,159.52 C335.764,159.52,346.353,161.821,346.353,161.821 C346.919,161.815,347.302,161.683,347.5,161.424 C347.699,161.166,347.923,160.473,348.172,159.346 C348.294,158.794,348.456,158.488,348.658,158.428 C348.753,158.423,348.89,158.44,349.07,158.48 C349.385,158.549,349.431,159.085,349.21,160.087 C348.988,161.09,348.413,163.906,347.484,168.536 C347.473,168.796,347.435,169.077,347.368,169.377 C347.258,169.879,346.978,170.079,346.528,169.98 C346.079,169.881,345.957,169.473,346.163,168.756 C346.396,167.914,346.478,167.118,346.408,166.366 C346.385,166.046,346.19,165.806,345.825,165.646 C345.46,165.487,344.626,165.263,343.323,164.975 C343.323,164.975,335.169,163.173,335.169,163.173 C335.013,163.664,334.863,164.235,334.719,164.887 C334.719,164.887,334.378,166.427,334.378,166.427 C334.301,166.778,334.238,167.172,334.188,167.607 C334.105,167.983,334.053,168.221,334.031,168.321 C334.031,168.321,332.773,173.05,332.773,173.05 C332.651,173.391,332.432,173.526,332.118,173.457 C331.893,173.407,327.65,170.538,319.389,164.849 C316.724,163.051,310.861,159.088,301.802,152.959 C301.391,152.685,301.205,152.46,301.244,152.284 C301.299,152.034,301.754,152.003,302.607,152.192 C302.607,152.192,334.281,159.192,334.281,159.192 C334.281,159.192,334.364,158.816,334.364,158.816 C334.553,157.965,334.611,157.275,334.539,156.746 C334.467,156.218,334.072,155.874,333.353,155.715 C330.517,155.115,329.549,154.914,330.447,155.113 C328.835,154.73,328.057,154.413,328.112,154.163 C328.19,153.812,328.858,153.776,330.116,154.054 C330.116,154.054,333.148,154.724,333.148,154.724 C333.148,154.724,338.009,155.759,338.009,155.759 C339.677,156.101,340.727,156.307,341.159,156.376 C341.591,156.446,341.942,156.51,342.212,156.57 z M310.486,157.481 C311.149,157.89,312.403,158.719,314.248,159.968 C316.745,161.676,320.465,164.246,325.408,167.677 C325.408,167.677,331.355,171.79,331.355,171.79 C331.695,170.893,332.203,168.916,332.878,165.859 C333.116,164.782,333.318,163.762,333.484,162.8 C333.484,162.8,328.699,161.743,328.699,161.743 C326.453,161.246,323.428,160.538,319.626,159.619 C315.15,158.551,312.103,157.838,310.486,157.481 z"/>
          </defs>
          <use xlink:href="#39" style="fill:#818181;fill-opacity:0.81678;fill-rule:nonzero;opacity:1;stroke:none;"/>
        </g>
      </defs>
      <use xlink:href="#38"/>
      <defs>
        <title>Text Copy</title>
        <g id="40">
          <defs>
            <path id="41" d="M338.13,244.606 C338.189,244.389,340.549,241.403,345.21,235.647 C347.828,232.401,349.718,229.82,350.881,227.905 C352.043,225.989,352.907,224.001,353.47,221.941 C353.757,220.893,354.148,218.786,354.642,215.619 C354.815,214.501,355.005,213.563,355.213,212.804 C355.915,210.238,356.922,209.134,358.234,209.493 C359.793,209.92,360.034,212.103,358.956,216.042 C357.957,219.692,355.49,224.184,351.557,229.517 C349.068,232.876,345.978,236.731,342.287,241.082 C342.287,241.082,347.93,242.626,347.93,242.626 C350.85,243.425,352.538,243.868,352.993,243.954 C353.548,244.066,353.96,244.043,354.23,243.884 C354.499,243.725,354.729,243.467,354.92,243.111 C355.11,242.756,355.663,241.538,356.578,239.457 C356.796,239.051,357.004,238.874,357.202,238.929 C357.449,238.996,357.514,239.247,357.395,239.681 C357.276,240.114,357.022,240.802,356.631,241.744 C355.755,243.874,355.068,245.706,354.568,247.24 C354.212,248.347,353.839,249.08,353.448,249.439 C353.274,249.391,352.777,249.216,351.955,248.914 C350.114,248.255,348.772,247.81,347.931,247.579 C347.931,247.579,340.216,245.585,340.216,245.585 C340.018,245.531,339.803,245.491,339.57,245.466 C339.372,245.412,339.249,245.378,339.199,245.365 C338.407,245.148,338.051,244.895,338.13,244.606 z"/>
          </defs>
          <use xlink:href="#41" style="fill:#818181;fill-opacity:0.79669;fill-rule:nonzero;opacity:1;stroke:none;"/>
        </g>
      </defs>
      <use xlink:href="#40"/>
      <defs>
        <title>Text</title>
        <g id="42">
          <defs>
            <path id="43" d="M278.545,197.093 C281.198,200.382,283.348,203.773,284.994,207.265 C286.64,210.757,287.563,213.886,287.763,216.653 C288.002,219.633,287.105,221.942,285.072,223.582 C282.289,225.827,278.474,225.792,273.628,223.478 C268.781,221.165,263.987,217.07,259.248,211.192 C253.762,204.391,250.711,198.007,250.093,192.039 C249.71,188.443,250.629,185.75,252.849,183.959 C255.472,181.844,258.885,181.806,263.09,183.844 C268.296,186.356,273.448,190.772,278.545,197.093 z M272.601,198.593 C268.159,193.085,264.051,188.895,260.276,186.022 C257.401,183.826,255.121,183.408,253.435,184.767 C250.064,187.486,253.372,195.037,263.358,207.419 C273.822,220.393,280.833,225.445,284.392,222.575 C286.051,221.237,285.721,218.392,283.403,214.039 C281.299,210.062,277.699,204.913,272.601,198.593 z"/>
          </defs>
          <use xlink:href="#43" style="fill:#ffffff;fill-opacity:1;fill-rule:nonzero;opacity:1;stroke:none;"/>
        </g>
      </defs>
      <use xlink:href="#42"/>
      <defs>
        <title>Text Copy</title>
        <g id="44">
          <defs>
            <path id="45" d="M300.935,182.627 C302.836,184.983,304.275,187.494,305.253,190.158 C306.232,192.821,306.618,195.285,306.412,197.549 C306.212,199.983,305.095,202.02,303.061,203.66 C300.279,205.905,296.895,206.405,292.911,205.16 C288.926,203.916,285.236,201.188,281.84,196.978 C277.911,192.106,276.085,187.241,276.363,182.384 C276.521,179.459,277.711,177.101,279.931,175.31 C282.553,173.195,285.591,172.691,289.043,173.796 C293.319,175.155,297.283,178.098,300.935,182.627 z M295.447,184.693 C292.265,180.747,289.197,177.846,286.242,175.989 C283.993,174.569,282.025,174.539,280.34,175.899 C276.968,178.618,278.86,184.413,286.015,193.284 C293.511,202.578,299.038,205.79,302.597,202.92 C304.256,201.582,304.357,199.272,302.901,195.988 C301.584,192.986,299.099,189.221,295.447,184.693 z"/>
          </defs>
          <use xlink:href="#45" style="fill:#ffffff;fill-opacity:1;fill-rule:nonzero;opacity:1;stroke:none;"/>
        </g>
      </defs>
      <use xlink:href="#44"/>
    </g>
  </g>
</svg>
