<?xml version="1.0" encoding="utf-8"?>
<svg x="0pt" y="0pt" width="400pt" height="400pt" viewBox="0 0 400 400" xmlns="http://www.w3.org/2000/svg" xmlns:xlink="http://www.w3.org/1999/xlink">
  <g id="1">
    <title>Layer 2</title>
    <g id="2">
      <title>Group</title>
      <defs>
        <title>Path</title>
        <g id="3">
          <defs>
            <path id="4" d="M192.5,259.5 C192.5,259.5,192.5,351.5,192.5,351.5 C192.5,351.5,283.851,318.313,283.851,318.313 C283.851,318.313,339,225.104,339,225.104 C339,225.104,244.5,216.5,244.5,216.5 C244.5,216.5,192.5,259.5,192.5,259.5 z"/>
          </defs>
          <use xlink:href="#4" style="fill:#004c28;fill-opacity:1;fill-rule:nonzero;opacity:1;stroke:none;"/>
          <use xlink:href="#4" style="fill:none;opacity:1;stroke:#000000;stroke-linecap:butt;stroke-linejoin:miter;stroke-miterlimit:10;stroke-opacity:1;stroke-width:1;"/>
        </g>
      </defs>
      <use xlink:href="#3"/>
      <defs>
        <title>Path</title>
        <g id="5">
          <defs>
            <path id="6" d="M245.043,100.04 C245.043,100.04,256.5,218.5,256.5,218.5 C256.5,218.5,339,225.104,339,225.104 C339,225.104,311.5,152.5,311.5,152.5 C311.5,152.5,245.043,100.04,245.043,100.04 z"/>
          </defs>
          <use xlink:href="#6" style="fill:#006736;fill-opacity:1;fill-rule:nonzero;opacity:1;stroke:none;"/>
          <use xlink:href="#6" style="fill:none;opacity:1;stroke:#000000;stroke-linecap:butt;stroke-linejoin:miter;stroke-miterlimit:10;stroke-opacity:1;stroke-width:1;"/>
        </g>
      </defs>
      <use xlink:href="#5"/>
      <defs>
        <title>Path</title>
        <g id="7">
          <defs>
            <path id="8" d="M192.5,258.5 C192.5,258.5,118.5,215.5,118.5,215.5 C118.5,215.5,51,235.723,51,235.723 C51,235.723,112.277,317.133,112.277,317.133 C112.277,317.133,192.5,351.5,192.5,351.5 C192.5,351.5,192.5,258.5,192.5,258.5 z"/>
          </defs>
          <use xlink:href="#8" style="fill:#004d28;fill-opacity:1;fill-rule:nonzero;opacity:1;stroke:none;"/>
          <use xlink:href="#8" style="fill:none;opacity:1;stroke:#000000;stroke-linecap:butt;stroke-linejoin:miter;stroke-miterlimit:10;stroke-opacity:1;stroke-width:1;"/>
        </g>
      </defs>
      <use xlink:href="#7"/>
      <defs>
        <title>Path</title>
        <g id="9">
          <defs>
            <path id="10" d="M127.596,105.939 C127.596,105.939,119.5,216.5,119.5,216.5 C119.5,216.5,192.5,259.5,192.5,259.5 C192.5,259.5,259.5,220.5,259.5,220.5 C259.5,220.5,244.5,100.5,244.5,100.5 C244.5,100.5,127.596,105.939,127.596,105.939 z"/>
          </defs>
          <use xlink:href="#10" style="fill:#008c4a;fill-opacity:1;fill-rule:nonzero;opacity:1;stroke:none;"/>
          <use xlink:href="#10" style="fill:none;opacity:1;stroke:#000000;stroke-linecap:butt;stroke-linejoin:miter;stroke-miterlimit:10;stroke-opacity:1;stroke-width:1;"/>
        </g>
      </defs>
      <use xlink:href="#9"/>
      <defs>
        <title>Path</title>
        <g id="11">
          <defs>
            <path id="12" d="M51,235.723 C51,235.723,76.5,162.5,76.5,162.5 C76.5,162.5,127.596,105.939,127.596,105.939 C127.596,105.939,119.5,214.5,119.5,214.5 C119.5,214.5,51,235.723,51,235.723 z"/>
          </defs>
          <use xlink:href="#12" style="fill:#006736;fill-opacity:1;fill-rule:nonzero;opacity:1;stroke:none;"/>
          <use xlink:href="#12" style="fill:none;opacity:1;stroke:#000000;stroke-linecap:butt;stroke-linejoin:miter;stroke-miterlimit:10;stroke-opacity:1;stroke-width:1;"/>
        </g>
      </defs>
      <use xlink:href="#11"/>
      <defs>
        <title>Text Copy</title>
        <g id="13">
          <defs>
            <path id="14" d="M143.087,289.556 C143.087,289.556,142.699,289.823,142.699,289.823 C142.699,289.823,141.752,291.073,141.752,291.073 C141.549,291.255,140.889,291.456,139.773,291.677 C139.135,291.804,138.569,291.81,138.077,291.694 C138.077,291.694,135.233,291.126,135.233,291.126 C135.233,291.126,132.911,291.184,132.911,291.184 C132.911,291.184,131.232,290.804,131.232,290.804 C131.232,290.804,130.337,290.774,130.337,290.774 C130.337,290.774,128.976,290.365,128.976,290.365 C128.976,290.365,127.811,290.177,127.811,290.177 C127.811,290.177,126.348,289.708,126.348,289.708 C126.348,289.708,125.555,289.738,125.555,289.738 C125.555,289.738,124.61,289.271,124.61,289.271 C124.61,289.271,120.645,287.703,120.645,287.703 C120.645,287.703,118.466,286.385,118.466,286.385 C118.466,286.385,117.759,286.143,117.759,286.143 C117.433,285.681,117.168,285.347,116.964,285.141 C116.76,284.936,116.375,284.61,115.81,284.165 C115.81,284.165,115.594,284.254,115.594,284.254 C115.594,284.254,114.852,283.906,114.852,283.906 C114.267,283.563,113.69,283.111,113.123,282.55 C113.123,282.55,111.669,281.163,111.669,281.163 C111.669,281.163,111.033,279.695,111.033,279.695 C111.033,279.695,109.877,278.589,109.877,278.589 C109.749,278.314,109.709,277.917,109.755,277.401 C109.755,277.401,109.935,275.315,109.935,275.315 C109.935,275.315,109.965,275.074,109.965,275.074 C109.965,275.074,110.34,275.014,110.34,275.014 C110.34,275.014,110.907,274.465,110.907,274.465 C110.907,274.465,111.3,274.008,111.3,274.008 C111.3,274.008,112.109,273.945,112.109,273.945 C112.109,273.945,113.84,273.496,113.84,273.496 C113.84,273.496,114.39,273.432,114.39,273.432 C114.39,273.432,114.728,273.629,114.728,273.629 C114.728,273.629,114.968,273.941,114.968,273.941 C115.51,274.015,115.805,274.001,115.853,273.901 C115.875,273.856,115.818,273.673,115.684,273.351 C115.986,273.084,116.36,272.966,116.807,272.998 C117.876,272.994,119.004,273.109,120.19,273.345 C120.19,273.345,121.936,273.765,121.936,273.765 C121.936,273.765,122.698,273.889,122.698,273.889 C122.904,274.181,123.198,274.439,123.581,274.663 C123.581,274.663,123.852,274.821,123.852,274.821 C123.852,274.821,124.097,274.492,124.097,274.492 C124.571,274.526,125.055,274.63,125.548,274.804 C125.548,274.804,125.947,274.694,125.947,274.694 C125.947,274.694,125.199,273.999,125.199,273.999 C125.199,273.999,124.106,273.123,124.106,273.123 C124.106,273.123,123.284,271.59,123.284,271.59 C123.284,271.59,122.43,270.574,122.43,270.574 C122.43,270.574,122.214,270.125,122.214,270.125 C122.214,270.125,122.445,270.003,122.445,270.003 C122.445,270.003,122.006,268.307,122.006,268.307 C121.977,268.247,121.978,268.183,122.011,268.116 C122.07,267.993,122.355,267.881,122.866,267.779 C122.866,267.779,123.424,268.148,123.424,268.148 C123.784,268.359,123.997,268.397,124.061,268.263 C124.126,268.129,123.97,267.852,123.595,267.432 C124.244,266.981,125.231,266.821,126.554,266.951 C126.554,266.951,132.726,267.619,132.726,267.619 C132.726,267.619,133.076,267.609,133.076,267.609 C133.076,267.609,134.512,267.955,134.512,267.955 C135.368,268.155,136.07,268.362,136.617,268.574 C137.164,268.787,138.036,269.179,139.233,269.75 C139.233,269.75,139.941,270.079,139.941,270.079 C139.941,270.079,140.486,270.655,140.486,270.655 C140.958,271.175,141.351,271.527,141.666,271.711 C141.666,271.711,141.802,271.79,141.802,271.79 C141.802,271.79,143.478,272.535,143.478,272.535 C143.478,272.535,144.223,273.508,144.223,273.508 C144.223,273.508,145.952,275.314,145.952,275.314 C145.952,275.314,146.279,275.892,146.279,275.892 C146.035,275.921,145.894,275.975,145.856,276.053 C145.818,276.131,145.894,276.333,146.084,276.659 C146.084,276.659,146.539,276.882,146.539,276.882 C147.125,277.225,147.324,277.592,147.136,277.983 C147.136,277.983,146.915,278.262,146.915,278.262 C146.915,278.262,146.629,278.138,146.629,278.138 C146.629,278.138,146.57,278.619,146.57,278.619 C146.555,279.011,146.502,279.302,146.41,279.492 C146.297,279.727,146.003,279.948,145.528,280.157 C145.052,280.366,144.51,280.503,143.901,280.569 C143.292,280.636,142.719,280.626,142.183,280.542 C142.183,280.542,141.893,280.243,141.893,280.243 C141.29,280.177,140.816,280.293,140.47,280.592 C140.47,280.592,140.609,280.845,140.609,280.845 C140.609,280.845,140.119,280.602,140.119,280.602 C139.791,280.624,139.544,280.612,139.379,280.566 C139.214,280.519,138.691,280.361,137.812,280.089 C137.812,280.089,137.165,279.904,137.165,279.904 C137.165,279.904,137.087,280.245,137.087,280.245 C137.087,280.245,137.665,280.755,137.665,280.755 C139.282,282.074,140.146,282.858,140.256,283.109 C140.256,283.109,140.685,284.198,140.685,284.198 C140.685,284.198,142.315,286.569,142.315,286.569 C142.315,286.569,142.543,287.175,142.543,287.175 C142.178,287.334,141.956,287.497,141.875,287.665 C141.757,287.911,141.786,288.165,141.964,288.426 C142.141,288.687,142.516,289.064,143.087,289.556 z M141.766,276.817 C141.766,276.817,141.303,276.16,141.303,276.16 C141.303,276.16,141.049,275.517,141.049,275.517 C140.699,274.625,139.732,273.515,138.148,272.187 C138.148,272.187,138.106,271.733,138.106,271.733 C138.106,271.733,137.242,271.099,137.242,271.099 C137.084,270.949,136.892,270.808,136.667,270.676 C136.396,270.518,136.157,270.565,135.95,270.816 C135.95,270.816,135.561,270.545,135.561,270.545 C135.561,270.545,133.566,269.743,133.566,269.743 C133.566,269.743,131.612,268.944,131.612,268.944 C131.612,268.944,130.653,268.597,130.653,268.597 C130.653,268.597,129.327,268.745,129.327,268.745 C129.103,268.972,128.99,269.085,128.99,269.085 C128.99,269.085,128.181,269.148,128.181,269.148 C128.181,269.148,127.648,269.266,127.648,269.266 C127.648,269.266,127.519,269.535,127.519,269.535 C127.519,269.535,127.541,270.299,127.541,270.299 C127.541,270.299,128.257,272.05,128.257,272.05 C128.257,272.05,127.916,272.581,127.916,272.581 C127.972,272.943,128.215,273.25,128.643,273.5 C128.958,273.685,129.279,273.708,129.605,273.569 C130.021,274.085,130.471,274.498,130.956,274.811 C130.956,274.811,130.822,275.269,130.822,275.269 C130.822,275.269,131.128,275.534,131.128,275.534 C131.128,275.534,132.737,276.239,132.737,276.239 C132.737,276.239,134.833,277.552,134.833,277.552 C135.216,277.776,135.98,278.108,137.124,278.548 C137.124,278.548,137.591,278.478,137.591,278.478 C137.591,278.478,138.418,278.468,138.418,278.468 C138.418,278.468,139.274,278.668,139.274,278.668 C139.509,278.72,139.696,278.707,139.834,278.63 C139.972,278.553,140.195,278.358,140.504,278.045 C140.814,277.732,141.127,277.425,141.445,277.124 C141.445,277.124,141.766,276.817,141.766,276.817 z M137.356,289.682 C137.468,289.448,137.116,289.07,136.299,288.548 C136.299,288.548,136.967,288.059,136.967,288.059 C136.967,288.059,136.702,287.71,136.702,287.71 C136.702,287.71,136.779,287.369,136.779,287.369 C136.779,287.369,137.311,286.262,137.311,286.262 C137.397,286.084,137.046,285.764,136.258,285.302 C136.062,284.629,135.647,283.842,135.012,282.941 C135.012,282.941,135.476,282.697,135.476,282.697 C135.476,282.697,134.547,281.659,134.547,281.659 C134.547,281.659,133.094,280.809,133.094,280.809 C133.094,280.809,131.058,278.651,131.058,278.651 C131.058,278.651,130.265,278.23,130.265,278.23 C130.265,278.23,128.287,277.03,128.287,277.03 C128.287,277.03,127.719,277.041,127.719,277.041 C127.291,276.791,126.857,276.584,126.417,276.419 C125.976,276.254,125.269,276.016,124.294,275.703 C124.294,275.703,122.302,275.074,122.302,275.074 C122.302,275.074,121.212,274.91,121.212,274.91 C121.212,274.91,119.078,274.757,119.078,274.757 C118.128,274.931,117.372,275.154,116.808,275.426 C116.315,275.611,115.894,276.066,115.545,276.793 C115.545,276.793,115.279,277.346,115.279,277.346 C115.279,277.346,115.102,277.715,115.102,277.715 C115.102,277.715,114.646,277.491,114.646,277.491 C114.474,277.849,114.528,278.188,114.807,278.509 C114.807,278.509,115.529,279.167,115.529,279.167 C115.529,279.167,117.402,281.574,117.402,281.574 C117.898,282.222,118.778,282.973,120.042,283.827 C120.042,283.827,120.588,284.491,120.588,284.491 C120.588,284.491,120.992,284.641,120.992,284.641 C121.278,285.367,121.725,285.908,122.333,286.263 C122.716,286.487,123.031,286.493,123.278,286.279 C123.278,286.279,125.976,288.051,125.976,288.051 C125.976,288.051,127.546,288.476,127.546,288.476 C127.546,288.476,130.663,289.376,130.663,289.376 C130.663,289.376,132.546,289.511,132.546,289.511 C132.546,289.511,133.337,289.758,133.337,289.758 C133.337,289.758,135.571,288.982,135.571,288.982 C135.861,289.28,136.152,289.515,136.445,289.686 C136.918,289.963,137.221,289.962,137.356,289.682 z"/>
          </defs>
          <use xlink:href="#14" style="fill:#9f9f9f;fill-opacity:1;fill-rule:nonzero;opacity:1;stroke:none;"/>
        </g>
      </defs>
      <use xlink:href="#13"/>
      <defs>
        <title>Text Copy 1</title>
        <g id="15">
          <defs>
            <path id="16" d="M273.87,287.23 C273.922,287.373,273.931,287.52,273.896,287.671 C273.896,287.671,273.404,289.168,273.404,289.168 C273.404,289.168,273.209,289.917,273.209,289.917 C273.209,289.917,271.866,290.916,271.866,290.916 C271.866,290.916,270.69,292.464,270.69,292.464 C270.443,292.768,270.187,292.983,269.922,293.111 C269.333,293.394,268.749,293.566,268.169,293.626 C267.231,293.808,266.573,293.991,266.193,294.173 C266.193,294.173,266.136,294.201,266.136,294.201 C266.136,294.201,264.288,295.19,264.288,295.19 C264.288,295.19,260.949,296.494,260.949,296.494 C260.949,296.494,257.165,298.414,257.165,298.414 C257.165,298.414,256.481,298.743,256.481,298.743 C256.481,298.743,255.761,298.51,255.761,298.51 C255.761,298.51,255.562,298.882,255.562,298.882 C255.562,298.882,254.824,299.061,254.824,299.061 C254.824,299.061,254.9,299.453,254.9,299.453 C254.9,299.453,252.267,300.769,252.267,300.769 C252.267,300.769,251.943,300.245,251.943,300.245 C251.943,300.245,251.596,300.21,251.596,300.21 C251.596,300.21,250.985,300.554,250.985,300.554 C250.985,300.554,251.012,301.272,251.012,301.272 C251.012,301.272,249.762,301.974,249.762,301.974 C249.762,301.974,248.831,302.724,248.831,302.724 C248.275,303.159,247.656,303.541,246.973,303.87 C245.416,304.618,244.591,304.864,244.497,304.607 C244.497,304.607,244.419,304.392,244.419,304.392 C244.419,304.392,244.846,303.91,244.846,303.91 C244.846,303.91,245.386,303.095,245.386,303.095 C245.551,302.814,245.833,302.578,246.232,302.386 C246.232,302.386,246.46,302.277,246.46,302.277 C246.564,301.521,246.712,300.996,246.906,300.701 C247.1,300.406,247.482,300.122,248.051,299.848 C248.118,299.48,248.369,299.098,248.806,298.704 C248.486,298.622,248.295,298.496,248.232,298.324 C248.201,298.238,248.213,298.148,248.268,298.055 C248.268,298.055,249.529,296.188,249.529,296.188 C249.529,296.188,250.273,294.646,250.273,294.646 C250.273,294.646,250.794,293.69,250.794,293.69 C250.794,293.69,251.155,292.382,251.155,292.382 C251.155,292.382,252.735,289.555,252.735,289.555 C252.735,289.555,252.876,288.656,252.876,288.656 C252.876,288.656,253.325,287.407,253.325,287.407 C253.325,287.407,253.533,285.038,253.533,285.038 C253.533,285.038,255.75,278.906,255.75,278.906 C255.993,278.285,256.055,277.692,255.939,277.126 C255.939,277.126,255.549,274.768,255.549,274.768 C255.549,274.768,255.465,274.355,255.465,274.355 C255.052,274.201,254.756,274.062,254.577,273.938 C254.398,273.814,254.184,273.593,253.935,273.276 C253.372,273.261,252.964,273.23,252.713,273.183 C252.462,273.136,252.175,273.038,251.854,272.891 C251.854,272.891,251.876,272.401,251.876,272.401 C251.486,272.186,251.029,272.187,250.506,272.405 C250.506,272.405,250.652,272.99,250.652,272.99 C250.652,272.99,249.834,273.131,249.834,273.131 C247.833,273.455,246.532,273.681,245.932,273.81 C245.332,273.939,244.691,274.168,244.007,274.496 C243.001,274.98,242.261,275.521,241.788,276.118 C241.788,276.118,240.459,277.891,240.459,277.891 C240.459,277.891,239.833,278.47,239.833,278.47 C239.833,278.47,238.227,278.561,238.227,278.561 C238.22,278.296,238.224,278.109,238.24,278.001 C238.257,277.892,238.384,277.553,238.623,276.985 C238.623,276.985,238.801,276.37,238.801,276.37 C238.801,276.37,239.171,276.192,239.171,276.192 C239.323,276.119,239.413,276.059,239.44,276.012 C239.44,276.012,239.631,275.618,239.631,275.618 C239.631,275.618,241.31,273.979,241.31,273.979 C241.31,273.979,241.821,273.178,241.821,273.178 C242.221,272.499,243.332,271.721,245.154,270.845 C245.799,270.535,246.698,270.186,247.851,269.8 C248.354,270.079,248.71,270.168,248.919,270.068 C249.128,269.967,249.301,269.708,249.438,269.289 C249.72,269.204,249.922,269.178,250.046,269.211 C250.169,269.244,250.299,269.354,250.434,269.541 C250.684,269.555,250.904,269.516,251.094,269.425 C251.246,269.352,251.461,269.148,251.741,268.812 C251.741,268.812,252.53,268.684,252.53,268.684 C253.559,268.508,254.152,268.45,254.307,268.51 C254.307,268.51,254.878,268.79,254.878,268.79 C254.878,268.79,256.657,268.716,256.657,268.716 C257.161,268.692,257.842,268.877,258.699,269.271 C258.699,269.271,259.179,269.67,259.179,269.67 C259.179,269.67,259.578,270.764,259.578,270.764 C259.578,270.764,259.991,271.347,259.991,271.347 C259.991,271.347,260.11,271.491,260.11,271.491 C260.277,271.949,260.09,272.417,259.55,272.894 C259.55,272.894,259.626,273.286,259.626,273.286 C259.626,273.286,259.36,273.566,259.36,273.566 C259.695,273.69,259.886,273.817,259.933,273.945 C260.016,274.174,259.987,274.432,259.846,274.718 C259.846,274.718,257.489,281.018,257.489,281.018 C257.489,281.018,256.663,283.987,256.663,283.987 C256.663,283.987,256.314,284.406,256.314,284.406 C256.314,284.406,255.866,285.933,255.866,285.933 C255.866,285.933,253.418,291.798,253.418,291.798 C253.418,291.798,252.623,293.843,252.623,293.843 C252.623,293.843,252.234,295.164,252.234,295.164 C252.214,295.477,252.168,295.701,252.094,295.837 C252.021,295.973,251.818,296.196,251.486,296.508 C251.451,296.659,251.46,296.805,251.512,296.948 C251.533,297.006,251.632,297.093,251.808,297.209 C251.808,297.209,252.165,297.088,252.165,297.088 C252.165,297.088,254.453,295.837,254.453,295.837 C254.453,295.837,257.066,295.11,257.066,295.11 C257.066,295.11,257.664,294.822,257.664,294.822 C258.081,294.621,258.658,294.276,259.395,293.788 C259.395,293.788,259.973,293.812,259.973,293.812 C259.973,293.812,261.14,293.251,261.14,293.251 C261.14,293.251,263.801,291.921,263.801,291.921 C263.801,291.921,264.085,291.784,264.085,291.784 C264.085,291.784,264.717,291.682,264.717,291.682 C264.717,291.682,265.388,291.41,265.388,291.41 C265.388,291.41,267.021,290.473,267.021,290.473 C267.021,290.473,267.754,290.373,267.754,290.373 C267.754,290.373,268.719,289.808,268.719,289.808 C268.719,289.808,270.971,288.826,270.971,288.826 C271.54,288.552,272.089,287.944,272.615,287.002 C272.615,287.002,273.674,286.694,273.674,286.694 C273.674,286.694,273.721,286.823,273.721,286.823 C273.721,286.823,273.87,287.23,273.87,287.23 z"/>
          </defs>
          <use xlink:href="#16" style="fill:#9f9f9f;fill-opacity:1;fill-rule:nonzero;opacity:1;stroke:none;"/>
        </g>
      </defs>
      <use xlink:href="#15"/>
    </g>
    <defs>
      <title>Text</title>
      <g id="17">
        <defs>
          <path id="18" d="M165.658,134.715 C165.658,134.715,165.444,136.492,165.444,136.492 C165.444,136.492,164.485,140.045,164.485,140.045 C164.485,140.045,165.125,144.153,165.125,144.153 C165.125,144.153,165.231,145.818,165.231,145.818 C164.13,146.003,163.579,146.614,163.579,147.65 C163.579,148.205,163.721,148.649,164.005,148.983 C164.289,149.316,164.769,149.63,165.444,149.926 C165.444,149.926,165.125,152.314,165.125,152.314 C165.125,152.314,164.272,152.98,164.272,152.98 C164.272,152.98,164.272,155.867,164.272,155.867 C164.272,155.867,164.485,157.532,164.485,157.532 C164.485,157.643,164.476,157.726,164.458,157.782 C164.44,157.837,164.414,157.902,164.378,157.976 C164.378,157.976,163.899,161.529,163.899,161.529 C163.899,161.529,165.125,164.916,165.125,164.916 C165.125,164.916,164.592,168.913,164.592,168.913 C164.592,168.913,165.231,172.91,165.231,172.91 C165.231,172.91,164.911,173.798,164.911,173.798 C164.911,173.798,164.805,174.964,164.805,174.964 C164.805,174.964,164.165,175.852,164.165,175.852 C164.165,175.852,164.911,178.461,164.911,178.461 C164.911,178.461,164.911,180.293,164.911,180.293 C164.911,180.293,165.125,183.347,165.125,183.347 C165.125,183.347,164.805,184.513,164.805,184.513 C164.805,184.513,164.698,185.623,164.698,185.623 C164.698,185.623,163.579,187.011,163.579,187.011 C163.579,187.011,163.472,187.788,163.472,187.788 C163.472,187.788,163.472,188.565,163.472,188.565 C163.472,188.565,164.378,189.731,164.378,189.731 C164.805,190.212,165.054,190.582,165.125,190.841 C165.196,191.1,165.231,191.6,165.231,192.34 C165.231,192.34,165.125,195.172,165.125,195.172 C165.125,195.172,164.911,197.226,164.911,197.226 C164.911,197.226,165.231,199.724,165.231,199.724 C164.307,200.686,163.01,201.537,161.34,202.278 C159.669,203.018,158.195,203.388,156.915,203.388 C155.991,203.388,155.529,202.352,155.529,200.279 C155.529,200.279,155.529,200.168,155.529,200.168 C155.529,200.168,155.742,197.115,155.742,197.115 C155.742,197.115,156.915,196.337,156.915,196.337 C156.418,195.079,156.169,193.895,156.169,192.784 C156.809,192.303,157.128,191.73,157.128,191.063 C157.128,191.063,156.382,190.064,156.382,190.064 C156.382,190.064,156.489,188.232,156.489,188.232 C156.489,188.232,156.595,185.623,156.595,185.623 C156.595,185.623,157.608,184.124,157.608,184.124 C157.964,183.643,158.141,183.125,158.141,182.57 C158.141,182.273,158.106,182.088,158.035,182.014 C158.035,182.014,157.128,179.627,157.128,179.627 C157.128,179.627,157.288,178.239,157.288,178.239 C157.288,178.239,157.288,177.795,157.288,177.795 C157.288,177.388,157.395,177.073,157.608,176.851 C157.608,176.851,158.888,175.63,158.888,175.63 C159.03,175.556,159.101,175.408,159.101,175.186 C159.101,175.186,158.888,174.131,158.888,174.131 C158.888,174.131,157.715,171.078,157.715,171.078 C157.715,171.078,157.821,165.748,157.821,165.748 C157.821,165.748,156.915,164.027,156.915,164.027 C156.56,163.287,156.382,162.639,156.382,162.084 C156.382,162.084,156.915,152.758,156.915,152.758 C156.915,152.758,157.502,147.539,157.502,147.539 C157.502,147.539,157.395,145.041,157.395,145.041 C157.288,143.116,157.057,141.636,156.702,140.6 C156.702,140.6,150.625,140.711,150.625,140.711 C150.234,140.378,150.039,140.045,150.039,139.711 C150.039,138.712,150.234,138.139,150.625,137.99 C150.625,137.99,156.382,134.937,156.382,134.937 C156.382,134.937,160.647,130.829,160.647,130.829 C161.571,129.83,162.69,129.33,164.005,129.33 C164.361,129.33,164.911,129.441,165.658,129.663 C165.658,129.663,165.551,131.273,165.551,131.273 C165.551,131.273,165.551,131.717,165.551,131.717 C165.551,131.717,165.658,134.715,165.658,134.715 z M231.386,194.727 C231.386,195.098,231.315,195.431,231.173,195.727 C231.173,195.727,229.52,198.503,229.52,198.503 C229.52,198.503,228.774,199.946,228.774,199.946 C228.774,199.946,226.055,200.723,226.055,200.723 C226.055,200.723,223.283,202.888,223.283,202.888 C222.715,203.295,222.182,203.499,221.684,203.499 C220.582,203.499,219.552,203.258,218.592,202.777 C216.993,202.185,215.838,201.889,215.127,201.889 C215.127,201.889,215.021,201.889,215.021,201.889 C215.021,201.889,211.502,202.111,211.502,202.111 C211.502,202.111,205.425,201.445,205.425,201.445 C205.425,201.445,198.282,201.667,198.282,201.667 C198.282,201.667,197.003,201.667,197.003,201.667 C197.003,201.667,195.99,200.39,195.99,200.39 C195.99,200.39,195.457,201.001,195.457,201.001 C195.457,201.001,194.177,200.612,194.177,200.612 C194.177,200.612,194.071,201.556,194.071,201.556 C194.071,201.556,189.113,201.667,189.113,201.667 C189.113,201.667,188.9,200.168,188.9,200.168 C188.9,200.168,188.367,199.724,188.367,199.724 C188.367,199.724,187.194,199.835,187.194,199.835 C187.194,199.835,186.821,201.445,186.821,201.445 C186.821,201.445,184.422,201.667,184.422,201.667 C184.422,201.667,182.503,202.333,182.503,202.333 C181.366,202.703,180.157,202.888,178.878,202.888 C175.964,202.888,174.507,202.555,174.507,201.889 C174.507,201.889,174.507,201.334,174.507,201.334 C174.507,201.334,175.466,200.723,175.466,200.723 C175.466,200.723,176.799,199.502,176.799,199.502 C177.225,199.058,177.812,198.836,178.558,198.836 C178.558,198.836,178.985,198.836,178.985,198.836 C179.589,197.281,180.131,196.282,180.61,195.838 C181.09,195.394,181.863,195.172,182.929,195.172 C183.249,194.431,183.871,193.858,184.795,193.451 C184.333,192.932,184.102,192.451,184.102,192.007 C184.102,191.785,184.173,191.6,184.315,191.452 C184.315,191.452,187.407,188.676,187.407,188.676 C187.407,188.676,189.486,186.067,189.486,186.067 C189.486,186.067,190.872,184.513,190.872,184.513 C190.872,184.513,192.205,182.014,192.205,182.014 C192.205,182.014,196.363,177.462,196.363,177.462 C196.363,177.462,197.109,175.63,197.109,175.63 C197.109,175.63,198.548,173.354,198.548,173.354 C198.548,173.354,200.254,168.358,200.254,168.358 C200.254,168.358,207.344,157.199,207.344,157.199 C208.091,156.089,208.535,154.849,208.677,153.479 C208.677,153.479,209.423,147.872,209.423,147.872 C209.423,147.872,209.53,146.873,209.53,146.873 C208.961,146.096,208.57,145.476,208.357,145.013 C208.144,144.551,207.931,143.838,207.717,142.876 C206.829,142.247,206.198,141.747,205.825,141.377 C205.452,141.007,205.052,140.489,204.626,139.822 C204.626,139.822,204.945,138.768,204.945,138.768 C204.448,137.879,203.719,137.398,202.76,137.324 C202.76,137.324,202.653,138.768,202.653,138.768 C202.653,138.768,201.267,138.213,201.267,138.213 C197.891,136.806,195.688,135.927,194.657,135.576 C193.626,135.224,192.471,135.048,191.192,135.048 C189.308,135.048,187.816,135.455,186.714,136.27 C186.714,136.27,183.569,138.768,183.569,138.768 C183.569,138.768,182.236,139.378,182.236,139.378 C182.236,139.378,179.624,137.879,179.624,137.879 C179.766,137.287,179.882,136.88,179.971,136.658 C180.06,136.436,180.459,135.825,181.17,134.826 C181.17,134.826,181.81,133.66,181.81,133.66 C181.81,133.66,182.503,133.66,182.503,133.66 C182.787,133.66,182.965,133.623,183.036,133.549 C183.036,133.549,183.569,132.883,183.569,132.883 C183.569,132.883,187.194,131.051,187.194,131.051 C187.194,131.051,188.473,129.83,188.473,129.83 C189.504,128.756,191.725,128.22,195.137,128.22 C196.345,128.22,197.98,128.405,200.041,128.775 C200.681,129.922,201.196,130.496,201.587,130.496 C201.978,130.496,202.404,130.107,202.866,129.33 C203.364,129.441,203.702,129.598,203.879,129.802 C204.057,130.005,204.199,130.385,204.306,130.94 C204.697,131.236,205.07,131.384,205.425,131.384 C205.709,131.384,206.171,131.162,206.811,130.718 C206.811,130.718,208.144,131.273,208.144,131.273 C209.885,131.976,210.863,132.476,211.076,132.772 C211.076,132.772,211.822,133.993,211.822,133.993 C211.822,133.993,214.701,135.714,214.701,135.714 C215.518,136.195,216.495,137.324,217.633,139.101 C217.633,139.101,218.166,140.489,218.166,140.489 C218.166,140.489,218.166,143.32,218.166,143.32 C218.166,143.32,218.486,145.041,218.486,145.041 C218.486,145.041,218.592,145.485,218.592,145.485 C218.592,146.669,218.024,147.502,216.886,147.983 C216.886,147.983,216.78,148.927,216.78,148.927 C216.78,148.927,216.193,149.26,216.193,149.26 C216.655,149.889,216.886,150.37,216.886,150.704 C216.886,151.296,216.691,151.832,216.3,152.314 C216.3,152.314,208.89,163.694,208.89,163.694 C208.89,163.694,205.852,169.357,205.852,169.357 C205.852,169.357,205.052,169.912,205.052,169.912 C205.052,169.912,203.453,172.799,203.453,172.799 C203.453,172.799,196.15,183.125,196.15,183.125 C196.15,183.125,193.697,186.789,193.697,186.789 C193.697,186.789,192.311,189.287,192.311,189.287 C192.098,189.953,191.894,190.397,191.698,190.619 C191.503,190.841,191.05,191.119,190.339,191.452 C190.197,191.748,190.126,192.081,190.126,192.451 C190.126,192.599,190.232,192.895,190.446,193.34 C190.446,193.34,191.085,193.451,191.085,193.451 C191.085,193.451,195.457,193.118,195.457,193.118 C195.457,193.118,200.041,194.283,200.041,194.283 C200.041,194.283,201.161,194.283,201.161,194.283 C201.942,194.283,203.062,194.135,204.519,193.839 C204.519,193.839,205.425,194.505,205.425,194.505 C205.425,194.505,207.611,194.505,207.611,194.505 C207.611,194.505,212.622,194.394,212.622,194.394 C212.622,194.394,213.155,194.394,213.155,194.394 C213.155,194.394,214.221,194.838,214.221,194.838 C214.221,194.838,215.447,194.95,215.447,194.95 C215.447,194.95,218.592,194.616,218.592,194.616 C218.592,194.616,219.818,195.172,219.818,195.172 C219.818,195.172,221.684,194.95,221.684,194.95 C221.684,194.95,225.842,195.172,225.842,195.172 C226.908,195.172,228.134,194.413,229.52,192.895 C229.52,192.895,231.386,193.34,231.386,193.34 C231.386,193.34,231.386,193.673,231.386,193.673 C231.386,193.673,231.386,194.727,231.386,194.727 z"/>
        </defs>
        <use xlink:href="#18" style="fill:#ffffff;fill-opacity:1;fill-rule:nonzero;opacity:1;stroke:none;"/>
      </g>
    </defs>
    <use xlink:href="#17"/>
  </g>
</svg>
