<?xml version="1.0" encoding="utf-8"?>
<svg x="0pt" y="0pt" width="400pt" height="400pt" viewBox="0 0 400 400" xmlns="http://www.w3.org/2000/svg" xmlns:xlink="http://www.w3.org/1999/xlink">
  <g id="1">
    <title>Layer 2</title>
    <defs>
      <title>Path</title>
      <g id="2">
        <defs>
          <path id="3" d="M219.5,80.5 C213.5,80.5,37.5,223.5,36,238 C35.2265,245.477,271.5,325.5,271.5,325.5 C271.5,325.5,219.5,80.5,219.5,80.5 z"/>
        </defs>
        <use xlink:href="#3" style="fill:#ff9018;fill-opacity:1;fill-rule:nonzero;opacity:1;stroke:none;"/>
        <use xlink:href="#3" style="fill:none;opacity:1;stroke:#000000;stroke-linecap:butt;stroke-linejoin:miter;stroke-miterlimit:10;stroke-opacity:1;stroke-width:1;"/>
      </g>
    </defs>
    <use xlink:href="#2"/>
    <defs>
      <title>Path</title>
      <g id="4">
        <defs>
          <path id="5" d="M346.5,227.5 C346.5,227.5,271.5,325.5,271.5,325.5 C271.5,325.5,219.5,80.5,219.5,80.5 C233.5,80.5,346.5,227.5,346.5,227.5 z"/>
        </defs>
        <use xlink:href="#5" style="fill:#7f490e;fill-opacity:1;fill-rule:nonzero;opacity:1;stroke:none;"/>
        <use xlink:href="#5" style="fill:none;opacity:1;stroke:#000000;stroke-linecap:butt;stroke-linejoin:miter;stroke-miterlimit:10;stroke-opacity:1;stroke-width:1;"/>
      </g>
    </defs>
    <use xlink:href="#4"/>
    <defs>
      <title>Text</title>
      <g id="6">
        <defs>
          <path id="7" d="M178.488,248.443 C178.303,248.625,178.119,248.67,177.935,248.579 C177.751,248.488,177.658,248.352,177.658,248.17 C178.211,247.441,178.488,246.713,178.488,245.984 C178.488,245.347,178.073,244.891,177.244,244.618 C176.322,244.345,175.148,244.072,173.72,243.798 C172.292,243.525,170.771,243.275,169.159,243.047 C167.547,242.82,165.911,242.66,164.253,242.569 C162.595,242.478,161.074,242.433,159.693,242.433 C158.771,244.163,157.85,245.961,156.929,247.828 C156.007,249.695,155.178,251.516,154.441,253.292 C153.704,255.068,153.105,256.684,152.644,258.141 C152.184,259.598,151.953,260.736,151.953,261.556 C151.953,261.829,151.953,262.102,151.953,262.376 C151.953,262.74,152.046,263.059,152.23,263.332 C152.23,263.696,151.953,263.878,151.401,263.878 C151.032,263.15,150.594,262.398,150.088,261.624 C149.581,260.85,149.051,260.099,148.498,259.37 C147.853,258.642,147.531,257.822,147.531,256.912 C147.531,256.183,147.761,255.364,148.222,254.453 C149.512,252.085,150.779,249.74,152.022,247.418 C153.266,245.096,154.211,243.434,154.856,242.433 C153.75,242.433,152.161,242.478,150.088,242.569 C148.015,242.66,145.734,242.797,143.247,242.979 C140.759,243.161,138.133,243.434,135.369,243.798 C132.605,244.163,129.934,244.618,127.354,245.164 C127.078,245.164,126.939,244.982,126.939,244.618 C127.216,243.343,127.354,242.296,127.354,241.476 C127.354,240.839,127.815,240.429,128.736,240.247 C129.197,240.156,129.68,240.019,130.187,239.837 C130.694,239.655,131.592,239.2,132.882,238.471 C139.976,234.373,145.919,230.685,150.71,227.407 C155.5,224.129,159.508,220.759,162.733,217.299 C163.746,216.206,164.483,214.999,164.944,213.679 C165.405,212.359,165.635,211.061,165.635,209.786 C165.635,208.238,165.313,206.735,164.668,205.278 C164.668,205.005,164.898,204.686,165.359,204.322 C165.819,203.958,166.349,203.594,166.948,203.229 C167.547,202.865,168.123,202.569,168.675,202.341 C169.228,202.114,169.597,202,169.781,202 C170.242,202.182,170.633,202.615,170.956,203.298 C171.278,203.981,171.439,204.823,171.439,205.825 C171.439,207.737,170.818,209.718,169.574,211.767 C168.33,213.816,166.602,215.887,164.391,217.982 C163.009,219.348,161.19,220.896,158.932,222.626 C156.675,224.356,154.234,226.155,151.608,228.022 C148.982,229.888,146.241,231.778,143.385,233.69 C140.529,235.603,137.811,237.424,135.231,239.154 C134.863,239.336,134.702,239.518,134.748,239.701 C134.794,239.883,135.047,239.974,135.508,239.974 C139.654,239.792,143.615,239.678,147.393,239.632 C151.17,239.587,154.257,239.564,156.652,239.564 C160.522,233.098,163.908,227.794,166.81,223.651 C169.712,219.507,172.545,216.252,175.309,213.884 C177.704,211.789,180.607,209.74,184.016,207.737 C184.753,207.555,185.029,207.828,184.845,208.557 C182.081,210.196,179.847,211.835,178.142,213.474 C176.438,215.113,174.664,217.344,172.821,220.167 C171.255,222.444,169.528,225.153,167.639,228.295 C165.75,231.437,163.608,235.193,161.213,239.564 C162.687,239.564,164.391,239.587,166.326,239.632 C168.261,239.678,170.15,239.746,171.992,239.837 C173.835,239.928,175.516,240.042,177.036,240.179 C178.557,240.315,179.593,240.429,180.146,240.52 C180.791,240.611,181.113,241.112,181.113,242.023 C181.113,242.842,180.837,243.935,180.284,245.301 C179.731,246.667,179.133,247.714,178.488,248.443 z"/>
        </defs>
        <use xlink:href="#7" style="fill:#ffffff;fill-opacity:1;fill-rule:nonzero;opacity:1;stroke:none;"/>
      </g>
    </defs>
    <use xlink:href="#6"/>
    <defs>
      <title>Text Copy</title>
      <g id="8">
        <defs>
          <path id="9" d="M187.767,181.838 C186.194,178.927,185.168,176.312,184.689,173.994 C184.21,171.675,184.556,170.178,185.725,169.502 C186.411,169.106,187.424,169.231,188.765,169.877 C190.106,170.522,192.003,171.899,194.458,174.007 C195.665,175.072,196.653,175.922,197.422,176.555 C198.191,177.188,198.834,177.673,199.352,178.011 C199.87,178.348,200.293,178.545,200.62,178.6 C200.948,178.656,201.253,178.602,201.536,178.439 C201.939,178.206,202.203,177.662,202.327,176.807 C202.452,175.951,202.54,174.823,202.591,173.422 C202.651,172.409,202.733,171.504,202.839,170.709 C202.944,169.913,203.38,169.294,204.146,168.852 C205.194,168.246,206.748,168.328,208.806,169.098 C210.864,169.868,213.117,171.162,215.566,172.98 C218.014,174.797,220.503,177.081,223.032,179.831 C225.562,182.581,227.781,185.609,229.69,188.913 C230.411,190.162,231.05,191.408,231.608,192.653 C232.165,193.898,232.548,195.048,232.754,196.104 C232.961,197.16,232.951,198.121,232.724,198.986 C232.498,199.851,231.982,200.516,231.175,200.982 C230.369,201.448,229.433,201.597,228.367,201.429 C228.367,201.429,228.052,201.023,228.052,201.023 C228.052,201.023,228.899,200.534,228.899,200.534 C229.982,199.615,230.429,198.108,230.241,196.013 C230.053,193.918,228.814,190.888,226.523,186.923 C225.123,184.499,223.615,182.261,221.999,180.208 C220.383,178.154,218.764,176.445,217.142,175.08 C215.52,173.716,213.969,172.776,212.488,172.26 C211.007,171.744,209.702,171.813,208.572,172.465 C207.887,172.861,207.403,173.606,207.12,174.699 C206.837,175.793,206.633,177.208,206.507,178.946 C206.452,180.153,206.37,181.082,206.261,181.732 C206.153,182.383,205.917,182.813,205.554,183.022 C205.191,183.232,204.825,183.272,204.454,183.143 C204.084,183.014,203.504,182.639,202.715,182.018 C201.926,181.396,200.855,180.473,199.501,179.247 C198.148,178.021,196.327,176.404,194.038,174.397 C191.957,172.563,190.452,171.914,189.525,172.449 C189.162,172.659,188.884,173.04,188.692,173.591 C188.5,174.143,188.465,174.922,188.589,175.928 C188.713,176.933,189.026,178.173,189.527,179.646 C190.028,181.119,190.79,182.834,191.812,184.79 C192.024,185.157,192.008,185.362,191.764,185.405 C191.143,184.981,190.425,184.391,189.613,183.636 C188.801,182.881,188.185,182.282,187.767,181.838 z"/>
        </defs>
        <use xlink:href="#9" style="fill:#ffffff;fill-opacity:1;fill-rule:nonzero;opacity:1;stroke:none;"/>
      </g>
    </defs>
    <use xlink:href="#8"/>
    <defs>
      <title>Text Copy 1</title>
      <g id="10">
        <defs>
          <path id="11" d="M170.57,177.598 C165.051,174.227,159.49,171.115,153.888,168.261 C148.286,165.408,142.972,162.873,137.945,160.658 C136.94,160.205,136.019,159.893,135.183,159.72 C134.346,159.548,133.567,159.446,132.845,159.414 C131.702,159.364,130.698,159.57,129.834,160.031 C129.644,160.25,129.416,160.285,129.152,160.137 C128.887,159.99,128.878,159.853,129.124,159.728 C130.481,159.016,131.608,158.407,132.504,157.902 C133.4,157.397,134.36,157.167,135.383,157.211 C136.706,157.269,138.019,157.576,139.321,158.132 C141.038,158.842,143.077,159.782,145.437,160.951 C147.797,162.12,150.243,163.384,152.776,164.742 C155.309,166.1,157.84,167.504,160.368,168.953 C162.897,170.401,165.19,171.738,167.246,172.962 C167.304,173.01,167.363,173.035,167.424,173.038 C167.424,173.038,167.514,173.042,167.514,173.042 C167.574,173.044,167.635,173.024,167.697,172.982 C167.703,172.846,167.647,172.753,167.529,172.702 C166.904,171.813,166.165,170.805,165.31,169.679 C164.455,168.553,163.557,167.368,162.617,166.125 C161.677,164.882,160.722,163.615,159.754,162.325 C158.785,161.035,157.846,159.781,156.934,158.561 C157.119,158.479,157.332,158.42,157.575,158.385 C157.818,158.351,158.119,158.341,158.48,158.357 C159.157,159.43,159.962,160.667,160.895,162.069 C161.829,163.471,162.836,164.91,163.917,166.386 C164.997,167.862,166.079,169.316,167.162,170.747 C168.245,172.178,169.245,173.435,170.162,174.518 C170.262,174.976,170.361,175.468,170.459,175.994 C170.557,176.52,170.686,177.014,170.847,177.474 C170.847,177.474,170.57,177.598,170.57,177.598 z"/>
        </defs>
        <use xlink:href="#11" style="fill:#ffffff;fill-opacity:1;fill-rule:nonzero;opacity:1;stroke:none;"/>
      </g>
    </defs>
    <use xlink:href="#10"/>
    <defs>
      <title>Text Copy 1</title>
      <g id="12">
        <defs>
          <path id="13" d="M269.689,175.471 C271.491,176.977,272.9,178.371,273.916,179.653 C274.932,180.935,275.234,181.833,274.822,182.346 C274.58,182.647,273.991,182.683,273.055,182.455 C272.118,182.227,270.642,181.638,268.626,180.687 C267.625,180.203,266.813,179.82,266.19,179.538 C265.567,179.256,265.061,179.046,264.67,178.907 C264.28,178.768,263.987,178.7,263.792,178.703 C263.596,178.706,263.449,178.77,263.349,178.894 C263.207,179.071,263.242,179.412,263.454,179.917 C263.666,180.422,263.986,181.08,264.416,181.891 C264.715,182.48,264.965,183.009,265.168,183.478 C265.371,183.946,265.337,184.348,265.067,184.685 C264.697,185.145,263.83,185.263,262.465,185.04 C261.1,184.817,259.458,184.313,257.54,183.529 C255.622,182.745,253.53,181.697,251.263,180.386 C248.997,179.075,246.808,177.571,244.696,175.874 C243.898,175.233,243.145,174.585,242.437,173.928 C241.729,173.272,241.147,172.652,240.69,172.066 C240.234,171.481,239.926,170.928,239.766,170.406 C239.605,169.885,239.668,169.447,239.952,169.093 C240.236,168.739,240.694,168.554,241.325,168.537 C241.325,168.537,241.628,168.737,241.628,168.737 C241.628,168.737,241.33,169.108,241.33,169.108 C241.044,169.752,241.294,170.666,242.08,171.851 C242.865,173.035,244.525,174.645,247.059,176.681 C248.608,177.925,250.154,179.051,251.699,180.06 C253.244,181.068,254.678,181.878,256.001,182.489 C257.325,183.101,258.471,183.476,259.441,183.615 C260.41,183.753,261.094,183.575,261.492,183.079 C261.734,182.779,261.753,182.299,261.549,181.64 C261.344,180.981,260.993,180.145,260.494,179.133 C260.129,178.432,259.871,177.89,259.717,177.504 C259.563,177.119,259.551,176.846,259.678,176.687 C259.806,176.528,259.992,176.466,260.234,176.5 C260.476,176.535,260.913,176.689,261.543,176.962 C262.172,177.235,263.054,177.652,264.186,178.212 C265.319,178.773,266.832,179.508,268.726,180.418 C270.451,181.251,271.477,181.464,271.804,181.057 C271.932,180.897,271.957,180.649,271.881,180.311 C271.805,179.973,271.569,179.522,271.174,178.957 C270.779,178.392,270.205,177.713,269.453,176.919 C268.7,176.125,267.729,175.221,266.537,174.205 C266.302,174.017,266.244,173.897,266.362,173.846 C266.837,174.024,267.417,174.287,268.103,174.634 C268.79,174.981,269.318,175.26,269.689,175.471 z"/>
        </defs>
        <use xlink:href="#13" style="fill:#7e7e7e;fill-opacity:1;fill-rule:nonzero;opacity:1;stroke:none;"/>
      </g>
    </defs>
    <use xlink:href="#12"/>
    <defs>
      <title>Text Copy 2</title>
      <g id="14">
        <defs>
          <path id="15" d="M289.576,168.021 C289.482,167.785,289.349,167.408,289.176,166.889 C289.004,166.37,288.849,165.89,288.711,165.448 C288.109,163.521,287.696,162.031,287.47,160.977 C287.244,159.924,287.292,159.347,287.612,159.248 C287.743,159.206,287.906,159.332,288.101,159.624 C288.295,159.915,288.499,160.403,288.712,161.085 C289.226,162.732,289.511,164.141,289.567,165.313 C289.623,166.485,289.626,167.388,289.576,168.021 z M295.218,180.735 C294.924,180.386,294.579,179.844,294.184,179.108 C293.789,178.372,293.356,177.482,292.886,176.439 C292.416,175.396,291.925,174.239,291.414,172.966 C290.903,171.693,290.388,170.323,289.867,168.855 C289.893,168.274,289.904,167.632,289.901,166.928 C289.898,166.223,289.867,165.495,289.807,164.742 C289.748,163.99,289.663,163.256,289.554,162.541 C289.444,161.826,289.295,161.168,289.107,160.565 C288.894,159.883,288.673,159.291,288.444,158.789 C288.216,158.288,287.97,158.078,287.706,158.16 C287.461,158.237,287.29,158.533,287.193,159.048 C287.096,159.563,287.069,160.221,287.112,161.023 C287.156,161.824,287.275,162.735,287.469,163.754 C287.663,164.773,287.936,165.844,288.287,166.969 C288.513,167.691,288.726,168.374,288.926,169.017 C289.127,169.659,289.306,170.198,289.462,170.634 C289.374,172.072,289.254,173.64,289.103,175.34 C288.952,177.04,288.75,178.623,288.495,180.091 C288.241,181.558,287.921,182.815,287.535,183.861 C287.148,184.907,286.682,185.515,286.137,185.685 C285.534,185.873,284.971,185.708,284.448,185.188 C283.924,184.668,283.468,183.786,283.079,182.542 C282.779,181.578,282.57,180.696,282.454,179.894 C282.339,179.093,282.287,178.349,282.3,177.662 C282.312,176.975,282.364,176.331,282.455,175.73 C282.547,175.128,282.658,174.543,282.79,173.973 C282.828,173.829,282.804,173.704,282.72,173.598 C282.635,173.492,282.567,173.492,282.517,173.595 C282.366,174.303,282.227,175.096,282.098,175.974 C281.969,176.851,281.893,177.767,281.871,178.721 C281.849,179.676,281.901,180.684,282.026,181.747 C282.151,182.809,282.389,183.903,282.74,185.027 C282.878,185.469,283.046,185.923,283.243,186.39 C283.441,186.858,283.674,187.291,283.944,187.692 C284.213,188.093,284.514,188.395,284.847,188.6 C285.179,188.805,285.552,188.842,285.967,188.713 C286.512,188.543,286.996,187.841,287.416,186.608 C287.837,185.375,288.198,183.885,288.499,182.138 C288.801,180.392,289.052,178.551,289.254,176.615 C289.455,174.679,289.6,172.927,289.688,171.357 C290.39,173.341,291.083,175.262,291.766,177.12 C292.449,178.977,293.023,180.385,293.487,181.342 C293.694,181.806,293.919,182,294.164,181.923 C294.327,181.784,294.517,181.615,294.734,181.415 C294.95,181.215,295.115,181.032,295.228,180.864 C295.228,180.864,295.218,180.735,295.218,180.735 z"/>
        </defs>
        <use xlink:href="#15" style="fill:#cccccc;fill-opacity:1;fill-rule:nonzero;opacity:1;stroke:none;"/>
        <use xlink:href="#15" style="fill:#5d5d5d;fill-opacity:1;fill-rule:nonzero;opacity:1;stroke:none;"/>
      </g>
    </defs>
    <use xlink:href="#14"/>
    <defs>
      <title>Text Copy</title>
      <g id="16">
        <defs>
          <path id="17" d="M317.651,241.419 C317.716,241.624,317.681,241.725,317.545,241.722 C317.409,241.719,317.274,241.648,317.14,241.51 C316.811,240.755,316.379,240.099,315.844,239.544 C315.375,239.058,314.885,238.86,314.374,238.951 C313.828,239.076,313.188,239.291,312.452,239.599 C311.716,239.906,310.963,240.264,310.192,240.672 C309.421,241.081,308.691,241.55,308.003,242.079 C307.315,242.608,306.712,243.122,306.195,243.621 C307.122,245.273,308.099,246.977,309.126,248.733 C310.153,250.489,311.182,252.177,312.211,253.797 C313.24,255.417,314.204,256.866,315.103,258.143 C316.001,259.421,316.752,260.372,317.354,260.997 C317.555,261.205,317.756,261.413,317.957,261.621 C318.224,261.899,318.493,262.109,318.763,262.251 C319.031,262.528,319.061,262.767,318.854,262.967 C318.181,262.544,317.464,262.129,316.706,261.722 C315.947,261.315,315.196,260.933,314.454,260.577 C313.677,260.255,312.953,259.746,312.284,259.052 C311.749,258.497,311.232,257.788,310.736,256.928 C309.478,254.657,308.229,252.412,306.988,250.192 C305.746,247.972,304.878,246.364,304.384,245.368 C303.97,245.767,303.408,246.375,302.699,247.193 C301.989,248.011,301.236,248.938,300.438,249.975 C299.64,251.012,298.858,252.168,298.091,253.444 C297.323,254.72,296.657,256.031,296.093,257.379 C295.99,257.479,295.804,257.39,295.536,257.112 C294.703,256.041,293.984,255.192,293.382,254.567 C292.913,254.081,292.785,253.603,292.996,253.131 C293.101,252.895,293.182,252.617,293.238,252.295 C293.294,251.973,293.296,251.301,293.243,250.28 C292.887,244.595,292.402,239.637,291.786,235.408 C291.17,231.179,290.194,227.163,288.858,223.36 C288.434,222.161,287.823,220.975,287.025,219.802 C286.227,218.629,285.36,217.556,284.422,216.584 C283.284,215.403,282.059,214.374,280.747,213.496 C280.546,213.288,280.398,212.962,280.303,212.518 C280.207,212.074,280.138,211.605,280.094,211.111 C280.051,210.617,280.049,210.183,280.089,209.81 C280.128,209.437,280.183,209.217,280.252,209.15 C280.558,209.123,281.023,209.311,281.645,209.716 C282.268,210.12,282.948,210.704,283.684,211.468 C285.09,212.926,286.313,214.661,287.353,216.672 C288.394,218.683,289.27,220.887,289.981,223.282 C290.468,224.822,290.924,226.66,291.351,228.794 C291.777,230.928,292.185,233.181,292.574,235.552 C292.963,237.924,293.326,240.354,293.662,242.843 C293.998,245.332,294.319,247.702,294.625,249.953 C294.621,250.225,294.694,250.422,294.845,250.544 C294.997,250.666,295.158,250.644,295.331,250.478 C296.75,248.842,298.149,247.325,299.531,245.927 C300.912,244.528,302.051,243.397,302.948,242.532 C299.644,236.205,297.013,230.938,295.054,226.731 C293.095,222.524,291.763,219.019,291.057,216.216 C290.415,213.754,289.996,211.144,289.799,208.386 C289.942,207.981,290.246,208.089,290.712,208.711 C290.882,210.959,291.25,213.015,291.817,214.881 C292.384,216.746,293.36,219.087,294.745,221.905 C295.832,224.206,297.176,226.896,298.778,229.973 C300.38,233.05,302.34,236.688,304.656,240.885 C305.208,240.353,305.863,239.755,306.621,239.091 C307.379,238.428,308.136,237.798,308.893,237.202 C309.65,236.606,310.363,236.086,311.033,235.641 C311.703,235.197,312.175,234.909,312.449,234.779 C312.757,234.616,313.246,234.881,313.915,235.575 C314.518,236.2,315.218,237.133,316.015,238.374 C316.812,239.616,317.357,240.63,317.651,241.419 z"/>
        </defs>
        <use xlink:href="#17" style="fill:#b1b1b1;fill-opacity:1;fill-rule:nonzero;opacity:1;stroke:none;"/>
        <use xlink:href="#17" style="fill:#7f7f7f;fill-opacity:1;fill-rule:nonzero;opacity:1;stroke:none;"/>
      </g>
    </defs>
    <use xlink:href="#16"/>
  </g>
</svg>
