<?xml version="1.0" encoding="utf-8"?>
<svg x="0pt" y="0pt" width="400pt" height="400pt" viewBox="0 0 400 400" xmlns="http://www.w3.org/2000/svg" xmlns:xlink="http://www.w3.org/1999/xlink">
  <g id="1">
    <title>D100</title>
    <g id="2">
      <title>Group</title>
      <defs>
        <title>Path</title>
        <g id="3">
          <defs>
            <path id="4" d="M162.859,226.905 C162.859,226.905,106.656,287.26,106.656,287.26 C106.656,287.26,270.828,328,270.828,328 C270.828,328,250.122,275.189,250.122,275.189 C250.122,275.189,162.859,226.905,162.859,226.905 z"/>
          </defs>
          <use xlink:href="#4" style="fill:#20577f;fill-opacity:1;fill-rule:nonzero;opacity:1;stroke:none;"/>
          <use xlink:href="#4" style="fill:none;opacity:1;stroke:#000000;stroke-linecap:butt;stroke-linejoin:miter;stroke-miterlimit:10;stroke-opacity:1;stroke-width:1;"/>
        </g>
      </defs>
      <use xlink:href="#3"/>
      <defs>
        <title>Path</title>
        <g id="5">
          <defs>
            <path id="6" d="M313.72,107.704 C313.72,107.704,250.122,275.189,250.122,275.189 C250.122,275.189,270.828,328,270.828,328 C270.828,328,312.981,295.559,312.981,295.559 C312.981,295.559,313.72,107.704,313.72,107.704 z"/>
          </defs>
          <use xlink:href="#6" style="fill:#2a74a9;fill-opacity:1;fill-rule:nonzero;opacity:1;stroke:none;"/>
          <use xlink:href="#6" style="fill:none;opacity:1;stroke:#000000;stroke-linecap:butt;stroke-linejoin:miter;stroke-miterlimit:10;stroke-opacity:1;stroke-width:1;"/>
        </g>
      </defs>
      <use xlink:href="#5"/>
      <defs>
        <title>Path</title>
        <g id="7">
          <defs>
            <path id="8" d="M145.11,131.846 C145.11,131.846,162.859,226.905,162.859,226.905 C162.859,226.905,106.656,287.26,106.656,287.26 C106.656,287.26,112.572,101.669,112.572,101.669 C112.572,101.669,145.11,131.846,145.11,131.846 z"/>
          </defs>
          <use xlink:href="#8" style="fill:#20577f;fill-opacity:1;fill-rule:nonzero;opacity:1;stroke:none;"/>
          <use xlink:href="#8" style="fill:none;opacity:1;stroke:#000000;stroke-linecap:butt;stroke-linejoin:miter;stroke-miterlimit:10;stroke-opacity:1;stroke-width:1;"/>
        </g>
      </defs>
      <use xlink:href="#7"/>
      <defs>
        <title>Path</title>
        <g id="9">
          <defs>
            <path id="10" d="M145.11,131.846 C145.11,131.846,112.572,101.669,112.572,101.669 C112.572,101.669,151.027,73,151.027,73 C151.027,73,313.72,107.704,313.72,107.704 C313.72,107.704,145.11,131.846,145.11,131.846 z"/>
          </defs>
          <use xlink:href="#10" style="fill:#3da8f4;fill-opacity:1;fill-rule:nonzero;opacity:1;stroke:none;"/>
          <use xlink:href="#10" style="fill:none;opacity:1;stroke:#000000;stroke-linecap:butt;stroke-linejoin:miter;stroke-miterlimit:10;stroke-opacity:1;stroke-width:1;"/>
        </g>
      </defs>
      <use xlink:href="#9"/>
      <defs>
        <title>Path</title>
        <g id="11">
          <defs>
            <path id="12" d="M162.859,226.905 C162.859,226.905,250.122,275.189,250.122,275.189 C250.122,275.189,313.72,107.704,313.72,107.704 C313.72,107.704,145.11,131.846,145.11,131.846 C145.11,131.846,162.859,226.905,162.859,226.905 z"/>
          </defs>
          <use xlink:href="#12" style="fill:#3da8f4;fill-opacity:1;fill-rule:nonzero;opacity:1;stroke:none;"/>
          <use xlink:href="#12" style="fill:none;opacity:1;stroke:#000000;stroke-linecap:butt;stroke-linejoin:miter;stroke-miterlimit:10;stroke-opacity:1;stroke-width:1;"/>
        </g>
      </defs>
      <use xlink:href="#11"/>
      <defs>
        <title>Text Copy 2</title>
        <g id="13">
          <defs>
            <path id="14" d="M222.422,210.426 C214.146,214.611,205.553,214.189,196.643,209.158 C190.643,205.758,185.713,200.266,181.85,192.682 C177.708,184.551,175.873,176.861,176.344,169.614 C176.95,159.77,181.308,152.798,189.418,148.696 C201.748,142.46,213.314,145.86,224.117,158.896 C224.117,158.896,224.738,158.582,224.738,158.582 C223.306,152.297,223.463,146.731,225.209,141.884 C226.955,137.037,230.145,133.442,234.779,131.098 C241.234,127.834,247.754,127.61,254.34,130.426 C260.926,133.242,266.197,138.534,270.153,146.3 C273.643,153.152,275.016,159.525,274.271,165.417 C273.225,173.989,269.31,179.991,262.524,183.423 C257.641,185.892,252.462,186.501,246.985,185.249 C241.508,183.997,237.146,181.205,233.898,176.873 C233.898,176.873,233.472,177.261,233.472,177.261 C238.27,193.219,234.586,204.274,222.422,210.426 z M255.365,169.98 C262.73,166.256,267.405,162.052,269.392,157.371 C270.576,154.589,270.191,151.279,268.237,147.441 C263.862,138.853,255.179,137.844,242.186,144.415 C229.525,150.818,225.545,158.634,230.245,167.862 C232.339,171.973,235.171,174.161,238.739,174.424 C243.368,174.726,248.91,173.245,255.365,169.98 z M214.06,197.075 C229.121,189.458,233.813,180.076,228.135,168.929 C225.296,163.356,221.161,159.989,215.731,158.829 C210.301,157.668,204.193,158.804,197.407,162.236 C190.373,165.793,185.654,170.219,183.252,175.513 C180.849,180.808,181.09,186.287,183.976,191.952 C186.442,196.794,189.498,199.73,193.145,200.758 C198.978,202.404,205.95,201.176,214.06,197.075 z"/>
          </defs>
          <use xlink:href="#14" style="fill:#ffffff;fill-opacity:1;fill-rule:nonzero;opacity:1;stroke:none;"/>
        </g>
      </defs>
      <use xlink:href="#13"/>
      <defs>
        <title>Text Copy 1</title>
        <g id="15">
          <defs>
            <path id="16" d="M115.403,179.53 C116.255,174.918,118.532,171.272,122.236,168.589 C126.325,165.636,131.028,164.671,136.345,165.693 C140.691,166.529,143.656,168.365,145.239,171.2 C146.246,173.005,146.565,174.907,146.195,176.907 C145.877,178.63,145.172,179.918,144.081,180.772 C142.989,181.627,141.681,181.907,140.155,181.614 C138.953,181.383,138.035,180.775,137.403,179.79 C136.771,178.806,136.573,177.675,136.809,176.397 C137.169,174.452,138.538,173.134,140.916,172.44 C141.877,172.165,142.398,171.805,142.48,171.36 C142.614,170.638,142.133,169.87,141.039,169.055 C139.944,168.241,138.68,167.695,137.247,167.42 C133.733,166.744,130.611,167.64,127.881,170.106 C125.151,172.573,123.355,176.14,122.492,180.807 C120.758,190.196,123.404,195.566,130.433,196.918 C131.126,197.051,131.64,197.121,131.974,197.128 C131.974,197.128,132.459,197.221,132.459,197.221 C133.06,197.337,133.315,197.645,133.222,198.145 C133.15,198.534,132.539,198.732,131.388,198.741 C128.049,198.674,125.288,199.625,123.105,201.593 C120.922,203.561,119.497,206.35,118.83,209.961 C118.173,213.517,118.41,216.511,119.54,218.944 C120.671,221.376,122.531,222.841,125.12,223.339 C127.016,223.704,128.759,223.535,130.349,222.834 C131.938,222.133,132.851,221.144,133.088,219.866 C133.18,219.366,132.918,218.97,132.301,218.679 C129.414,217.203,128.17,215.382,128.571,213.215 C129.094,210.382,130.581,209.201,133.032,209.672 C134.604,209.974,135.761,210.772,136.504,212.065 C137.246,213.359,137.448,214.922,137.11,216.756 C136.555,219.756,135.016,222.063,132.491,223.678 C129.966,225.292,126.785,225.73,122.947,224.992 C118.555,224.148,115.454,222.142,113.645,218.975 C111.836,215.808,111.265,212.419,111.933,208.808 C112.856,203.808,115.504,200.491,119.876,198.858 C121.417,198.291,123.788,198.028,126.988,198.068 C126.988,198.068,127.096,197.484,127.096,197.484 C123.289,196.58,120.381,194.956,118.372,192.614 C115.417,189.169,114.427,184.808,115.403,179.53 z"/>
          </defs>
          <use xlink:href="#16" style="fill:#7f7f7f;fill-opacity:0.73286;fill-rule:nonzero;opacity:1;stroke:none;"/>
        </g>
      </defs>
      <use xlink:href="#15"/>
      <defs>
        <title>Text Copy 1</title>
        <g id="17">
          <defs>
            <path id="18" d="M293.535,269.028 C293.382,269.704,293.121,269.999,292.751,269.912 C292.418,269.834,292.294,269.395,292.377,268.595 C292.461,267.795,292.801,265.649,293.396,262.155 C293.445,261.596,293.389,261.156,293.228,260.833 C292.892,260.255,291.965,259.787,290.449,259.43 C290.042,259.334,289.646,259.277,289.261,259.257 C289.261,259.257,285.712,275.201,285.712,275.201 C285.713,276.056,285.903,276.636,286.282,276.939 C286.662,277.242,287.684,277.589,289.348,277.981 C290.161,278.173,290.611,278.421,290.698,278.727 C290.704,278.871,290.677,279.078,290.616,279.349 C290.508,279.822,289.715,279.885,288.236,279.536 C286.757,279.188,282.6,278.28,275.765,276.813 C275.38,276.794,274.966,276.732,274.522,276.627 C273.782,276.453,273.489,276.028,273.642,275.351 C273.795,274.675,274.4,274.497,275.457,274.817 C276.699,275.181,277.876,275.315,278.988,275.221 C279.463,275.19,279.82,274.9,280.061,274.351 C280.302,273.803,280.645,272.547,281.089,270.585 C281.089,270.585,283.867,258.308,283.867,258.308 C283.143,258.066,282.3,257.832,281.339,257.605 C281.339,257.605,279.064,257.07,279.064,257.07 C278.547,256.948,277.966,256.846,277.322,256.766 C276.767,256.635,276.416,256.553,276.268,256.518 C276.268,256.518,269.292,254.554,269.292,254.554 C268.79,254.365,268.592,254.033,268.7,253.56 C268.776,253.221,273.078,246.86,281.607,234.476 C284.303,230.479,290.245,221.69,299.434,208.107 C299.846,207.492,300.181,207.215,300.44,207.275 C300.81,207.363,300.849,208.049,300.558,209.334 C300.558,209.334,289.766,257.025,289.766,257.025 C289.766,257.025,290.321,257.156,290.321,257.156 C291.578,257.452,292.598,257.549,293.38,257.449 C294.163,257.348,294.676,256.756,294.921,255.674 C295.849,251.404,296.159,249.945,295.853,251.298 C296.441,248.871,296.92,247.701,297.29,247.788 C297.808,247.91,297.852,248.918,297.424,250.813 C297.424,250.813,296.39,255.379,296.39,255.379 C296.39,255.379,294.793,262.698,294.793,262.698 C294.263,265.209,293.944,266.791,293.836,267.442 C293.727,268.093,293.627,268.622,293.535,269.028 z M292.627,221.146 C292.012,222.142,290.769,224.022,288.897,226.787 C286.336,230.531,282.484,236.107,277.34,243.518 C277.34,243.518,271.175,252.433,271.175,252.433 C272.497,252.958,275.414,253.752,279.925,254.814 C281.516,255.189,283.021,255.508,284.441,255.771 C284.441,255.771,286.072,248.566,286.072,248.566 C286.837,245.184,287.926,240.631,289.338,234.907 C290.98,228.169,292.076,223.582,292.627,221.146 z"/>
          </defs>
          <use xlink:href="#18" style="fill:#818181;fill-opacity:0.81678;fill-rule:nonzero;opacity:1;stroke:none;"/>
        </g>
      </defs>
      <use xlink:href="#17"/>
      <defs>
        <title>Text Copy</title>
        <g id="19">
          <defs>
            <path id="20" d="M163.625,261.694 C163.944,261.787,168.321,265.388,176.756,272.498 C181.513,276.491,185.297,279.378,188.11,281.158 C190.923,282.938,193.846,284.267,196.881,285.146 C198.425,285.593,201.532,286.21,206.202,286.999 C207.851,287.275,209.235,287.575,210.353,287.898 C214.133,288.992,215.748,290.527,215.199,292.501 C214.546,294.847,211.319,295.181,205.516,293.501 C200.138,291.944,193.539,288.163,185.718,282.156 C180.793,278.356,175.143,273.641,168.77,268.013 C168.77,268.013,166.408,276.506,166.408,276.506 C165.186,280.901,164.508,283.442,164.375,284.127 C164.2,284.962,164.228,285.584,164.46,285.993 C164.691,286.402,165.068,286.753,165.591,287.045 C166.114,287.337,167.905,288.188,170.965,289.597 C171.562,289.931,171.819,290.247,171.736,290.545 C171.633,290.917,171.262,291.011,170.623,290.826 C169.984,290.641,168.972,290.247,167.586,289.645 C164.452,288.295,161.756,287.233,159.498,286.459 C157.868,285.907,156.791,285.333,156.266,284.738 C156.339,284.478,156.604,283.73,157.063,282.494 C158.063,279.725,158.74,277.707,159.092,276.441 C159.092,276.441,162.149,264.829,162.149,264.829 C162.232,264.531,162.293,264.207,162.333,263.856 C162.416,263.558,162.468,263.372,162.489,263.297 C162.82,262.106,163.199,261.571,163.625,261.694 z"/>
          </defs>
          <use xlink:href="#20" style="fill:#818181;fill-opacity:0.79669;fill-rule:nonzero;opacity:1;stroke:none;"/>
        </g>
      </defs>
      <use xlink:href="#19"/>
      <defs>
        <title>Text</title>
        <g id="21">
          <defs>
            <path id="22" d="M194.046,90.4419 C188.767,89.9664,183.743,89.8971,178.973,90.2341 C174.204,90.571,170.324,91.27,167.332,92.3311 C164.094,93.4566,162.355,95.1078,162.116,97.2845 C161.79,100.263,164.545,102.991,170.383,105.47 C176.222,107.948,183.856,109.612,193.287,110.461 C204.201,111.444,212.951,110.858,219.537,108.703 C223.513,107.413,225.631,105.579,225.891,103.202 C226.199,100.395,223.805,97.9234,218.708,95.7868 C212.41,93.137,204.189,91.3554,194.046,90.4419 z M196.74,95.3701 C205.578,96.1661,212.822,97.2957,218.472,98.7591 C222.783,99.8704,224.839,101.328,224.641,103.133 C224.245,106.741,214.112,107.651,194.241,105.861 C173.421,103.986,163.22,101.144,163.638,97.3348 C163.833,95.5591,166.998,94.557,173.133,94.3286 C178.728,94.1094,186.597,94.4566,196.74,95.3701 z"/>
          </defs>
          <use xlink:href="#22" style="fill:#ffffff;fill-opacity:1;fill-rule:nonzero;opacity:1;stroke:none;"/>
        </g>
      </defs>
      <use xlink:href="#21"/>
    </g>
  </g>
</svg>
