<?xml version="1.0" encoding="utf-8"?>
<svg id="coinFlip" x="0pt" y="0pt" width="400pt" height="400pt" viewBox="0 0 400 400"
  xmlns="http://www.w3.org/2000/svg" xmlns:xlink="http://www.w3.org/1999/xlink" >
  <g id="Layer 1" style="opacity:0.85;"/>
  <g id="Layer 2">
    <path id="Path" style="fill:#655a4d;fill-opacity:1;fill-rule:evenodd;opacity:1;stroke:#000000;stroke-linecap:butt;stroke-linejoin:miter;stroke-miterlimit:10;stroke-opacity:1;stroke-width:5;" d="M214.5,55.5 C289.058,55.5,354.5,127.18,354.5,204.5 C354.5,281.82,289.058,335.5,214.5,335.5 C139.942,335.5,79.5,272.82,79.5,195.5 C79.5,160.621,85.1538,124.011,105.5,99.5 C130.257,69.6748,173.575,55.5,214.5,55.5 z"/>
    <path id="Path Copy" style="fill:#ffe4c4;fill-opacity:1;fill-rule:evenodd;mix-blend-mode:difference;opacity:1;stroke:#000000;stroke-linecap:butt;stroke-linejoin:miter;stroke-miterlimit:10;stroke-opacity:1;stroke-width:2;" d="M214.5,69 C281.603,69,336,125.412,336,195 C336,264.588,281.603,321,214.5,321 C147.397,321,93,264.588,93,195 C93,158.263,96.8128,124.031,121,101 C142.628,80.4052,182.823,69,214.5,69 z"/>
    <path id="Path" style="fill:#e0c8ac;fill-opacity:1;fill-rule:evenodd;mix-blend-mode:difference;opacity:1;stroke:#000000;stroke-linecap:butt;stroke-linejoin:miter;stroke-miterlimit:10;stroke-opacity:1;stroke-width:2;" d="M198,230 C198,230,165,281,165,281 C165,281,210,280,210,280 C210,280,216,232,216,232 C216,232,198,230,198,230 z"/>
    <path id="Path" style="fill:#e0c8ac;fill-opacity:1;fill-rule:nonzero;mix-blend-mode:difference;opacity:1;stroke:#000000;stroke-linecap:butt;stroke-linejoin:miter;stroke-miterlimit:10;stroke-opacity:1;stroke-width:2;" d="M222,145 C222,145,227,150,227,150"/>
    <path id="Path Copy" style="fill:#e0c8ac;fill-opacity:1;fill-rule:nonzero;mix-blend-mode:difference;opacity:1;stroke:#000000;stroke-linecap:butt;stroke-linejoin:miter;stroke-miterlimit:10;stroke-opacity:1;stroke-width:2;" d="M222,145 C222,145,227,150,227,150"/>
    <path id="Path" style="fill:#e0c8ac;fill-opacity:1;fill-rule:nonzero;mix-blend-mode:difference;opacity:1;stroke:#000000;stroke-linecap:butt;stroke-linejoin:miter;stroke-miterlimit:10;stroke-opacity:1;stroke-width:2;" d="M229,145 C229,145,227,149,227,149"/>
    <path id="Path" style="fill:#8e5210;fill-opacity:1;fill-rule:nonzero;opacity:1;stroke:#000000;stroke-linecap:butt;stroke-linejoin:miter;stroke-miterlimit:10;stroke-opacity:1;stroke-width:3;" d="M223.876,138.944 C223.876,138.944,209.826,137.332,209.826,137.332 C209.826,137.332,204.239,146.266,200.191,143.5 C198.753,142.518,201.191,138.5,195.899,136.844 C191.394,135.435,162.5,118.5,162.5,118.5 C162.5,118.5,161.078,103.65,167.5,96.5 C169.964,93.7569,182.217,92.4769,182.217,92.4769 C182.217,92.4769,207.868,127.755,207.868,127.755 C207.868,127.755,187.132,89.6763,187.132,89.6763 C187.132,89.6763,200.284,79.7203,210.5,78.5 C214.276,78.0489,227.045,84.0239,227.045,84.0239 C227.045,84.0239,220.159,120.501,220.159,120.501 C220.159,120.501,235.025,85.1738,235.025,85.1738 C235.025,85.1738,241.7,79.1184,250.5,81.5 C252.913,82.153,258.171,91.5168,258.171,91.5168 C258.171,91.5168,247.349,119.657,247.349,119.657 C247.349,119.657,267.816,94.1597,267.816,94.1597 C267.816,94.1597,273.5,94.5,273.5,94.5 C273.5,94.5,278.068,102.153,278.068,102.153 C278.068,102.153,271.738,113.898,271.738,113.898 C271.738,113.898,283.59,104.704,283.59,104.704 C283.59,104.704,288.758,106.304,291.5,109.5 C292.84,111.063,296.114,119.541,296.114,119.541 C296.114,119.541,273.64,137.23,273.64,137.23 C273.64,137.23,296.439,126.763,296.439,126.763 C296.439,126.763,298.391,124.601,303.191,128.547 C304.341,129.493,306.45,135.244,306.45,135.244 C306.45,135.244,291.904,139.539,291.904,139.539 C291.904,139.539,310.248,140.004,310.248,140.004 C310.248,140.004,316.674,143.752,317.04,149.123 C317.281,152.672,319.364,167.864,319.191,173.547 C319.12,175.871,321.718,192.635,322.149,202.367 C322.801,217.087,319.191,226.5,319.191,226.5 C319.191,226.5,316.203,224.07,313.586,248.753 C312.953,254.718,300.613,267.101,290.191,276.5 C277.53,287.918,277.191,294.5,277.191,294.5 C277.191,294.5,274.669,292.95,274.669,292.95 C274.669,292.95,271.616,276.425,283.915,264.345 C291.185,257.205,297.021,249.788,297.19,244.26 C297.399,237.413,303.191,208.5,303.191,208.5 C303.191,208.5,283.479,195.918,285.607,176.8 C286.099,172.381,280.285,161.269,280.285,161.269 C280.285,161.269,269.242,159.628,269.242,159.628 C269.242,159.628,258.357,143.1,251.118,145.047 C248.089,145.861,257.5,161.5,257.5,161.5 C257.5,161.5,256.595,161.592,237.57,155.342 C223.194,150.618,210.5,148.5,210.5,148.5 C210.5,148.5,223.876,138.944,223.876,138.944 z"/>
    <path id="Path" style="fill:#8e5210;fill-opacity:1;fill-rule:nonzero;opacity:1;stroke:#000000;stroke-linecap:butt;stroke-linejoin:miter;stroke-miterlimit:10;stroke-opacity:1;stroke-width:1;" d="M298.5,251.5 C298.5,251.5,301.934,245.197,302.5,243.5 C303.494,240.517,305.171,227.782,307.5,220.5 C308.778,216.504,312.5,217.5,312.5,217.5 C312.5,217.5,308.5,210.5,308.5,210.5"/>
    <path id="Path Copy" style="fill:#8e5210;fill-opacity:1;fill-rule:nonzero;opacity:1;stroke:#000000;stroke-linecap:butt;stroke-linejoin:miter;stroke-miterlimit:10;stroke-opacity:1;stroke-width:1;" d="M306.5,245.5 C306.5,245.5,308.581,226.757,310.5,222.5 C311.026,221.332,315.5,218.5,315.5,218.5 C315.5,218.5,313,211,313,211"/>
    <path id="Path Copy 1" style="fill:#8e5210;fill-opacity:1;fill-rule:nonzero;opacity:1;stroke:#000000;stroke-linecap:butt;stroke-linejoin:miter;stroke-miterlimit:10;stroke-opacity:1;stroke-width:1;" d="M311.5,245.5 C311.5,245.5,311.957,229.912,313.5,227.5 C314.039,226.658,318.5,219.5,318.5,219.5 C318.5,219.5,318,212,318,212"/>
    <path id="Path" style="fill:#8e5210;fill-opacity:1;fill-rule:nonzero;opacity:1;stroke:#000000;stroke-linecap:butt;stroke-linejoin:miter;stroke-miterlimit:10;stroke-opacity:1;stroke-width:2;" d="M181.5,111.5 C181.5,111.5,167.5,97.5,167.5,97.5"/>
    <path id="Path Copy" style="fill:#8e5210;fill-opacity:1;fill-rule:nonzero;opacity:1;stroke:#000000;stroke-linecap:butt;stroke-linejoin:miter;stroke-miterlimit:10;stroke-opacity:1;stroke-width:1;" d="M170.5,113.5 C170.5,113.5,162.5,106.5,162.5,106.5"/>
    <path id="Path Copy 1" style="fill:#8e5210;fill-opacity:1;fill-rule:nonzero;opacity:1;stroke:#000000;stroke-linecap:butt;stroke-linejoin:miter;stroke-miterlimit:10;stroke-opacity:1;stroke-width:1;" d="M201.5,93.5 C201.5,93.5,197.5,83.5,197.5,83.5"/>
    <path id="Path Copy 2" style="fill:#8e5210;fill-opacity:1;fill-rule:nonzero;opacity:1;stroke:#000000;stroke-linecap:butt;stroke-linejoin:miter;stroke-miterlimit:10;stroke-opacity:1;stroke-width:1;" d="M220.5,91.5 C220.5,91.5,221.5,80.5,221.5,80.5"/>
    <path id="Path Copy 2" style="fill:#8e5210;fill-opacity:1;fill-rule:nonzero;opacity:1;stroke:#000000;stroke-linecap:butt;stroke-linejoin:miter;stroke-miterlimit:10;stroke-opacity:1;stroke-width:2;" d="M211.5,96.5 C211.5,96.5,211,79,211,79"/>
    <path id="Path Copy 2" style="fill:#8e5210;fill-opacity:1;fill-rule:nonzero;opacity:1;stroke:#000000;stroke-linecap:butt;stroke-linejoin:miter;stroke-miterlimit:10;stroke-opacity:1;stroke-width:1;" d="M240.5,92.5 C240.5,92.5,241.5,81.5,241.5,81.5"/>
    <path id="Path Copy 3" style="fill:#8e5210;fill-opacity:1;fill-rule:nonzero;opacity:1;stroke:#000000;stroke-linecap:butt;stroke-linejoin:miter;stroke-miterlimit:10;stroke-opacity:1;stroke-width:1;" d="M289.5,136.5 C289.5,136.5,302.5,130.5,302.5,130.5"/>
    <path id="Path Copy 3" style="fill:#8e5210;fill-opacity:1;fill-rule:nonzero;opacity:1;stroke:#000000;stroke-linecap:butt;stroke-linejoin:miter;stroke-miterlimit:10;stroke-opacity:1;stroke-width:1;" d="M251.5,93.5 C251.5,93.5,254.593,86.5,254.593,86.5"/>
    <path id="Path Copy 3" style="fill:#8e5210;fill-opacity:1;fill-rule:nonzero;opacity:1;stroke:#000000;stroke-linecap:butt;stroke-linejoin:miter;stroke-miterlimit:10;stroke-opacity:1;stroke-width:2;" d="M244.806,98.1964 C244.806,98.1964,249.191,82.9009,249.191,82.9009"/>
    <path id="Path Copy 4" style="fill:#8e5210;fill-opacity:1;fill-rule:nonzero;opacity:1;stroke:#000000;stroke-linecap:butt;stroke-linejoin:miter;stroke-miterlimit:10;stroke-opacity:1;stroke-width:2;" d="M267,106 C267,106,273,95,273,95"/>
    <path id="Path Copy 5" style="fill:#8e5210;fill-opacity:1;fill-rule:nonzero;opacity:1;stroke:#000000;stroke-linecap:butt;stroke-linejoin:miter;stroke-miterlimit:10;stroke-opacity:1;stroke-width:2;" d="M281,116 C281,116,292,109,292,109"/>
    <path id="Path Copy" style="fill:#8e5210;fill-opacity:1;fill-rule:nonzero;opacity:1;stroke:#000000;stroke-linecap:butt;stroke-linejoin:miter;stroke-miterlimit:10;stroke-opacity:1;stroke-width:1;" d="M182.5,101.5 C182.5,101.5,174.5,93.5,174.5,93.5"/>
    <path id="Path" style="fill:none;opacity:1;stroke:#000000;stroke-linecap:butt;stroke-linejoin:miter;stroke-miterlimit:10;stroke-opacity:1;stroke-width:1;" d="M328.5,139.5"/>
    <path id="Path" style="fill:#7a7639;fill-opacity:1;fill-rule:nonzero;opacity:1;stroke:#000000;stroke-linecap:butt;stroke-linejoin:miter;stroke-miterlimit:10;stroke-opacity:1;stroke-width:3;" d="M137.5,221.5 C148.857,236.45,193.753,235.645,209.035,246.123 C215.021,250.228,182.5,300.5,182.5,300.5 C182.5,300.5,260.035,282.495,260.035,282.495 C260.035,282.495,286.497,251.748,278.855,203.689 C274.035,173.379,273.612,171.002,262.035,161.255 C243.1,145.316,209.947,142.183,193.45,148.664 C187.202,151.118,125.333,205.484,137.5,221.5 z"/>
    <path id="Path Copy 1" style="fill:#aea336;fill-opacity:1;fill-rule:nonzero;opacity:1;stroke:#000000;stroke-linecap:round;stroke-linejoin:miter;stroke-miterlimit:10;stroke-opacity:1;stroke-width:2;" d="M259,161 C259,161,253.254,143.345,237.181,138.28 C234.186,137.337,228.933,136.435,224.152,137.441 C218.483,138.633,211,147,211,147 C211,147,236.232,152.319,236.232,152.319 C236.232,152.319,259,161,259,161 z"/>
    <path id="Path" style="fill:none;opacity:1;stroke:#000000;stroke-linecap:round;stroke-linejoin:miter;stroke-miterlimit:10;stroke-opacity:1;stroke-width:1;" d="M230.5,136.5 C230.5,136.5,226.532,144.054,226.5,144.5 C226.455,145.131,227.5,150.5,227.5,150.5"/>
    <path id="Path" style="fill:none;opacity:1;stroke:#000000;stroke-linecap:round;stroke-linejoin:miter;stroke-miterlimit:10;stroke-opacity:1;stroke-width:1;" d="M235.5,137.5 C235.5,137.5,232.585,143.941,232.5,144.5 C232.405,145.129,233.5,151.5,233.5,151.5"/>
    <path id="Path" style="fill:none;opacity:1;stroke:#000000;stroke-linecap:round;stroke-linejoin:miter;stroke-miterlimit:10;stroke-opacity:1;stroke-width:1;" d="M239.5,140.5 C239.5,140.5,239.592,146.111,239.5,146.5 C239.397,146.935,237.5,152.5,237.5,152.5"/>
    <path id="Path" style="fill:none;opacity:1;stroke:#000000;stroke-linecap:round;stroke-linejoin:miter;stroke-miterlimit:10;stroke-opacity:1;stroke-width:1;" d="M244.5,142.5 C244.5,142.5,243.653,148.13,243.5,148.5 C243.284,149.023,241.5,153.5,241.5,153.5"/>
    <path id="Path" style="fill:none;opacity:1;stroke:#000000;stroke-linecap:round;stroke-linejoin:miter;stroke-miterlimit:10;stroke-opacity:1;stroke-width:1;" d="M252.5,152.5 C252.5,152.5,250.5,156.5,250.5,156.5"/>
    <path id="Path" style="fill:none;opacity:1;stroke:#000000;stroke-linecap:round;stroke-linejoin:miter;stroke-miterlimit:10;stroke-opacity:1;stroke-width:1;" d="M222.5,139.5 C222.5,139.5,221.5,148.5,221.5,148.5"/>
    <path id="Path" style="fill:none;opacity:1;stroke:#000000;stroke-linecap:round;stroke-linejoin:miter;stroke-miterlimit:10;stroke-opacity:1;stroke-width:1;" d="M246.5,155.5 C246.5,155.5,248.266,152.182,248.5,151.5 C248.705,150.902,249.5,145.5,249.5,145.5"/>
    <path id="Path" style="fill:#8e5210;fill-opacity:1;fill-rule:nonzero;opacity:1;stroke:#000000;stroke-linecap:butt;stroke-linejoin:miter;stroke-miterlimit:10;stroke-opacity:1;stroke-width:1;" d="M288.5,154.5 C288.5,154.5,294.5,171.5,294.5,171.5 C294.5,171.5,294.411,180.233,296.5,186.5 C298.5,192.5,304.5,199.5,304.5,199.5"/>
    <path id="Path Copy" style="fill:#8e5210;fill-opacity:1;fill-rule:nonzero;opacity:1;stroke:#000000;stroke-linecap:butt;stroke-linejoin:miter;stroke-miterlimit:10;stroke-opacity:1;stroke-width:1;" d="M294.5,156.5 C294.5,156.5,300,172.011,300,172.011 C300,172.011,299.889,181.52,302.5,188.344 C305,194.878,312.5,202.5,312.5,202.5"/>
    <path id="Path Copy 1" style="fill:#8e5210;fill-opacity:1;fill-rule:nonzero;opacity:1;stroke:#000000;stroke-linecap:butt;stroke-linejoin:miter;stroke-miterlimit:10;stroke-opacity:1;stroke-width:1;" d="M308.5,147.5 C308.5,147.5,310.5,157.5,310.5,157.5 C310.5,157.5,313.577,165.45,315.5,172.5 C318.5,183.5,317.5,201.5,317.5,201.5"/>
    <path id="Path Copy 1" style="fill:#8e5210;fill-opacity:1;fill-rule:nonzero;opacity:1;stroke:#000000;stroke-linecap:butt;stroke-linejoin:miter;stroke-miterlimit:10;stroke-opacity:1;stroke-width:1;" d="M298.5,150.5 C298.5,150.5,306.5,172.5,306.5,172.5 C306.5,172.5,307.889,177.676,310.5,184.5 C313,191.033,313.5,197.5,313.5,197.5"/>
    <path id="Path" style="fill:#8e5210;fill-opacity:1;fill-rule:nonzero;opacity:1;stroke:#000000;stroke-linecap:butt;stroke-linejoin:miter;stroke-miterlimit:10;stroke-opacity:1;stroke-width:1;" d="M278.5,285.5 C278.5,285.5,282.252,272.186,288.5,267.5 C292.5,264.5,291.66,266.084,295.5,261.5 C296.507,260.298,296.393,259.402,300.5,255.5 C301.632,254.424,305.5,249.5,305.5,249.5"/>
  </g>
</svg>
