<?xml version="1.0" encoding="utf-8"?>
<svg x="0pt" y="0pt" width="400pt" height="400pt" viewBox="0 0 400 400" xmlns="http://www.w3.org/2000/svg" xmlns:xlink="http://www.w3.org/1999/xlink">
  <g id="1">
    <title>Layer 1</title>
    <defs>
      <title>Path</title>
      <g id="2">
        <defs>
          <path id="3" d="M116.5,156.5 C116.5,156.5,73.5,265.5,73.5,265.5 C73.5,265.5,192.5,288.5,192.5,288.5 C192.5,288.5,116.5,156.5,116.5,156.5 z"/>
        </defs>
        <use xlink:href="#3" style="fill:#b3141a;fill-opacity:1;fill-rule:nonzero;opacity:1;stroke:none;"/>
        <use xlink:href="#3" style="fill:none;opacity:1;stroke:#000000;stroke-linecap:butt;stroke-linejoin:miter;stroke-miterlimit:10;stroke-opacity:1;stroke-width:1;"/>
      </g>
    </defs>
    <use xlink:href="#2"/>
    <defs>
      <title>Path</title>
      <g id="4">
        <defs>
          <path id="5" d="M68.5,135.5 C68.5,135.5,182.5,67.5,182.5,67.5 C182.5,67.5,116.5,156.5,116.5,156.5 C116.5,156.5,68.5,135.5,68.5,135.5 z"/>
        </defs>
        <use xlink:href="#5" style="fill:#ff1c24;fill-opacity:1;fill-rule:nonzero;opacity:1;stroke:none;"/>
        <use xlink:href="#5" style="fill:none;opacity:1;stroke:#000000;stroke-linecap:butt;stroke-linejoin:miter;stroke-miterlimit:10;stroke-opacity:1;stroke-width:1;"/>
      </g>
    </defs>
    <use xlink:href="#4"/>
    <defs>
      <title>Path</title>
      <g id="6">
        <defs>
          <path id="7" d="M73.5,265.5 C73.5,265.5,68.5,135.5,68.5,135.5 C68.5,135.5,116.5,156.5,116.5,156.5 C116.5,156.5,73.5,265.5,73.5,265.5 z"/>
        </defs>
        <use xlink:href="#7" style="fill:#b3141a;fill-opacity:1;fill-rule:nonzero;opacity:1;stroke:none;"/>
        <use xlink:href="#7" style="fill:none;opacity:1;stroke:#000000;stroke-linecap:butt;stroke-linejoin:miter;stroke-miterlimit:10;stroke-opacity:1;stroke-width:1;"/>
      </g>
    </defs>
    <use xlink:href="#6"/>
    <defs>
      <title>Path</title>
      <g id="8">
        <defs>
          <path id="9" d="M192.5,288.5 C192.5,288.5,264.5,161.5,264.5,161.5 C264.5,161.5,302.5,259.5,302.5,259.5 C302.5,259.5,192.5,288.5,192.5,288.5 z"/>
        </defs>
        <use xlink:href="#9" style="fill:#b21419;fill-opacity:1;fill-rule:nonzero;opacity:1;stroke:none;"/>
        <use xlink:href="#9" style="fill:none;opacity:1;stroke:#000000;stroke-linecap:butt;stroke-linejoin:miter;stroke-miterlimit:10;stroke-opacity:1;stroke-width:1;"/>
      </g>
    </defs>
    <use xlink:href="#8"/>
    <defs>
      <title>Path</title>
      <g id="10">
        <defs>
          <path id="11" d="M264.5,161.5 C264.5,161.5,292.5,128.5,292.5,128.5 C292.5,128.5,302.5,259.5,302.5,259.5 C302.5,259.5,264.5,161.5,264.5,161.5 z"/>
        </defs>
        <use xlink:href="#11" style="fill:#b3141a;fill-opacity:1;fill-rule:nonzero;opacity:1;stroke:none;"/>
        <use xlink:href="#11" style="fill:none;opacity:1;stroke:#000000;stroke-linecap:butt;stroke-linejoin:miter;stroke-miterlimit:10;stroke-opacity:1;stroke-width:1;"/>
      </g>
    </defs>
    <use xlink:href="#10"/>
    <defs>
      <title>Path</title>
      <g id="12">
        <defs>
          <path id="13" d="M183.5,67.5 C183.5,67.5,292.5,128.5,292.5,128.5 C292.5,128.5,264.5,161.5,264.5,161.5 C264.5,161.5,183.5,67.5,183.5,67.5 z"/>
        </defs>
        <use xlink:href="#13" style="fill:#f31b23;fill-opacity:1;fill-rule:nonzero;opacity:1;stroke:none;"/>
        <use xlink:href="#13" style="fill:none;opacity:1;stroke:#000000;stroke-linecap:butt;stroke-linejoin:miter;stroke-miterlimit:10;stroke-opacity:1;stroke-width:1;"/>
      </g>
    </defs>
    <use xlink:href="#12"/>
    <defs>
      <title>Path</title>
      <g id="14">
        <defs>
          <path id="15" d="M116.5,156.5 C116.5,156.5,264.5,161.5,264.5,161.5 C264.5,161.5,192.5,288.5,192.5,288.5 C192.5,288.5,116.5,156.5,116.5,156.5 z"/>
        </defs>
        <use xlink:href="#15" style="fill:#cb171d;fill-opacity:1;fill-rule:nonzero;opacity:1;stroke:none;"/>
        <use xlink:href="#15" style="fill:none;opacity:1;stroke:#000000;stroke-linecap:butt;stroke-linejoin:miter;stroke-miterlimit:10;stroke-opacity:1;stroke-width:1;"/>
      </g>
    </defs>
    <use xlink:href="#14"/>
    <defs>
      <title>Path</title>
      <g id="16">
        <defs>
          <path id="17" d="M183.5,67.5 C183.5,67.5,116.5,156.5,116.5,156.5 C116.5,156.5,264.5,161.5,264.5,161.5 C264.5,161.5,183.5,67.5,183.5,67.5 z"/>
        </defs>
        <use xlink:href="#17" style="fill:#ff1c24;fill-opacity:1;fill-rule:nonzero;opacity:1;stroke:none;"/>
        <use xlink:href="#17" style="fill:none;opacity:1;stroke:#000000;stroke-linecap:butt;stroke-linejoin:miter;stroke-miterlimit:10;stroke-opacity:1;stroke-width:1;"/>
      </g>
    </defs>
    <use xlink:href="#16"/>
    <defs>
      <title>Path</title>
      <g id="18">
        <defs>
          <path id="19" d="M192.5,288.5 C192.5,288.5,186.5,321.5,186.5,321.5 C186.5,321.5,302.5,259.5,302.5,259.5 C302.5,259.5,192.5,288.5,192.5,288.5 z"/>
        </defs>
        <use xlink:href="#19" style="fill:#7e0e12;fill-opacity:1;fill-rule:nonzero;opacity:1;stroke:none;"/>
        <use xlink:href="#19" style="fill:none;opacity:1;stroke:#000000;stroke-linecap:butt;stroke-linejoin:miter;stroke-miterlimit:10;stroke-opacity:1;stroke-width:1;"/>
      </g>
    </defs>
    <use xlink:href="#18"/>
    <defs>
      <title>Path</title>
      <g id="20">
        <defs>
          <path id="21" d="M73.5,265.5 C73.5,265.5,192.5,288.5,192.5,288.5 C192.5,288.5,186.5,321.5,186.5,321.5 C186.5,321.5,73.5,265.5,73.5,265.5 z"/>
        </defs>
        <use xlink:href="#21" style="fill:#7f0e12;fill-opacity:1;fill-rule:nonzero;opacity:1;stroke:none;"/>
        <use xlink:href="#21" style="fill:none;opacity:1;stroke:#000000;stroke-linecap:butt;stroke-linejoin:miter;stroke-miterlimit:10;stroke-opacity:1;stroke-width:1;"/>
      </g>
    </defs>
    <use xlink:href="#20"/>
    <defs>
      <title>Text</title>
      <g id="22">
        <defs>
          <path id="23" d="M180.296,141.181 C179.556,142.456,178.705,143.765,177.743,145.106 C176.781,146.448,175.683,147.668,174.45,148.767 C173.217,149.867,171.835,150.769,170.306,151.472 C168.777,152.176,167.099,152.528,165.274,152.528 C164.287,152.528,163.288,152.297,162.277,151.835 C161.266,151.373,160.217,150.9,159.132,150.417 C158.047,149.933,156.937,149.471,155.802,149.031 C154.667,148.592,153.459,148.372,152.176,148.372 C150.745,148.372,149.549,148.581,148.587,148.998 C147.625,149.416,146.848,149.889,146.256,150.417 C145.664,150.944,145.183,151.428,144.813,151.868 C144.443,152.308,144.135,152.528,143.888,152.528 C143.641,152.528,143.506,152.462,143.481,152.33 C143.456,152.198,143.444,152.044,143.444,151.868 C143.444,151.164,145.158,149.856,148.587,147.943 C152.016,146.03,157.257,143.644,164.312,140.785 C167.667,139.422,170.405,138.102,172.526,136.827 C174.647,135.551,176.3,134.265,177.484,132.968 C178.668,131.67,179.482,130.384,179.926,129.108 C180.37,127.833,180.592,126.514,180.592,125.15 C180.592,122.907,179.938,121.082,178.631,119.675 C177.324,118.267,175.412,117.564,172.896,117.564 C171.811,117.564,170.688,117.74,169.529,118.091 C168.37,118.443,167.321,118.96,166.384,119.642 C165.447,120.323,164.67,121.148,164.053,122.116 C163.436,123.083,163.128,124.183,163.128,125.414 C163.128,126.558,163.535,127.58,164.349,128.482 C165.163,129.383,166.211,129.834,167.494,129.834 C168.086,129.834,168.567,129.768,168.937,129.636 C169.307,129.504,169.763,129.328,170.306,129.108 C170.306,129.108,170.602,129.306,170.602,129.306 C170.059,130.186,169.319,130.89,168.382,131.417 C167.445,131.945,166.384,132.209,165.2,132.209 C163.671,132.209,162.45,131.758,161.537,130.857 C160.624,129.955,160.168,128.735,160.168,127.195 C160.168,126.052,160.476,124.853,161.093,123.6 C161.71,122.346,162.61,121.192,163.794,120.136 C164.978,119.081,166.433,118.212,168.16,117.531 C169.887,116.849,171.86,116.508,174.08,116.508 C176.004,116.508,177.669,116.75,179.075,117.234 C180.481,117.718,181.653,118.344,182.59,119.114 C183.527,119.884,184.218,120.763,184.662,121.753 C185.106,122.742,185.328,123.743,185.328,124.754 C185.328,126.909,184.773,128.812,183.663,130.461 C182.553,132.11,181.073,133.583,179.223,134.881 C177.373,136.178,175.252,137.344,172.859,138.377 C170.466,139.411,168.012,140.4,165.496,141.346 C162.98,142.291,160.501,143.248,158.059,144.216 C155.617,145.183,153.409,146.261,151.436,147.448 C151.436,147.448,151.584,147.712,151.584,147.712 C152.324,147.36,153.089,147.03,153.878,146.722 C154.667,146.415,155.531,146.261,156.468,146.261 C157.307,146.261,158.306,146.448,159.465,146.821 C160.624,147.195,161.821,147.602,163.054,148.042 C164.238,148.482,165.397,148.899,166.532,149.295 C167.667,149.691,168.629,149.889,169.418,149.889 C170.553,149.889,171.65,149.581,172.711,148.965 C173.772,148.35,174.746,147.602,175.634,146.722 C176.522,145.843,177.324,144.886,178.039,143.853 C178.754,142.819,179.334,141.907,179.778,141.115 C179.778,141.115,180.296,141.181,180.296,141.181 z M188.14,143.952 C188.14,141.973,188.535,139.938,189.324,137.849 C190.113,135.76,191.186,133.715,192.543,131.714 C193.9,129.713,195.466,127.822,197.242,126.041 C199.018,124.26,200.917,122.698,202.94,121.357 C204.963,120.016,207.022,118.96,209.119,118.19 C211.216,117.421,213.251,117.036,215.224,117.036 C216.803,117.036,218.147,117.256,219.257,117.696 C220.367,118.135,221.267,118.751,221.958,119.543 C222.649,120.334,223.154,121.269,223.475,122.346 C223.796,123.424,223.956,124.6,223.956,125.876 C223.956,127.679,223.549,129.592,222.735,131.615 C221.921,133.638,220.836,135.639,219.479,137.619 C218.122,139.598,216.531,141.478,214.706,143.259 C212.881,145.04,210.957,146.623,208.934,148.009 C206.911,149.394,204.852,150.494,202.755,151.307 C200.658,152.121,198.623,152.528,196.65,152.528 C193.739,152.528,191.593,151.725,190.212,150.12 C188.831,148.515,188.14,146.459,188.14,143.952 z M192.58,144.216 C192.58,145.183,192.666,146.107,192.839,146.986 C193.012,147.866,193.308,148.636,193.727,149.295 C194.146,149.955,194.689,150.483,195.355,150.879 C196.021,151.274,196.872,151.472,197.908,151.472 C200.325,151.472,202.804,150.714,205.345,149.196 C207.886,147.679,210.204,145.689,212.301,143.226 C214.398,140.763,216.124,137.97,217.481,134.848 C218.838,131.725,219.516,128.581,219.516,125.414 C219.516,124.447,219.405,123.523,219.183,122.643 C218.961,121.764,218.591,120.983,218.073,120.301 C217.555,119.62,216.901,119.081,216.112,118.685 C215.323,118.289,214.336,118.091,213.152,118.091 C210.981,118.091,208.687,118.883,206.27,120.466 C203.853,122.05,201.633,124.095,199.61,126.602 C197.587,129.108,195.91,131.912,194.578,135.013 C193.246,138.113,192.58,141.181,192.58,144.216 z"/>
        </defs>
        <use xlink:href="#23" style="fill:#ffffff;fill-opacity:1;fill-rule:nonzero;opacity:1;stroke:none;"/>
      </g>
    </defs>
    <use xlink:href="#22"/>
    <defs>
      <title>Text Copy</title>
      <g id="24">
        <defs>
          <path id="25" d="M263.306,226.469 C263.306,226.469,263.398,226.384,263.398,226.384 C263.126,225.659,262.869,224.872,262.627,224.021 C262.386,223.171,262.17,222.283,261.98,221.358 C261.789,220.433,261.626,219.503,261.49,218.57 C261.354,217.636,261.253,216.74,261.187,215.881 C261.187,215.881,261.647,215.75,261.647,215.75 C261.787,218.742,262.295,221.639,263.171,224.441 C264.047,227.243,265.046,229.883,266.169,232.36 C266.169,232.36,265.984,232.53,265.984,232.53 C264.821,231.288,263.448,229.82,261.866,228.127 C260.285,226.434,258.66,224.718,256.991,222.98 C255.322,221.241,253.683,219.573,252.075,217.974 C250.466,216.375,249.041,215.046,247.798,213.989 C247.798,213.989,247.724,209.961,247.724,209.961 C247.724,209.961,263.306,226.469,263.306,226.469 z M254.898,246.739 C255.318,246.798,255.743,246.825,256.172,246.821 C256.601,246.816,257.002,246.726,257.375,246.55 C257.748,246.374,258.067,246.109,258.331,245.754 C258.595,245.399,258.773,244.902,258.863,244.262 C259.003,243.269,258.83,242.126,258.344,240.832 C257.857,239.539,257.156,238.296,256.239,237.105 C255.323,235.914,254.226,234.869,252.947,233.97 C251.668,233.071,250.307,232.519,248.863,232.315 C248.443,232.256,248.004,232.235,247.546,232.252 C247.089,232.269,246.668,232.356,246.284,232.514 C245.9,232.672,245.562,232.935,245.269,233.301 C244.976,233.668,244.782,234.188,244.687,234.86 C244.511,236.109,244.717,237.396,245.307,238.72 C245.896,240.045,246.7,241.269,247.72,242.393 C248.739,243.517,249.889,244.479,251.168,245.281 C252.447,246.082,253.69,246.568,254.898,246.739 z M256.41,236.321 C256.837,236.904,257.257,237.535,257.669,238.214 C258.082,238.893,258.436,239.612,258.73,240.372 C259.024,241.133,259.233,241.93,259.356,242.763 C259.479,243.597,259.48,244.447,259.358,245.311 C259.127,246.944,258.579,248.116,257.716,248.827 C256.852,249.538,255.738,249.797,254.373,249.604 C253.165,249.433,251.924,248.833,250.65,247.804 C249.377,246.775,248.229,245.518,247.207,244.035 C246.184,242.551,245.387,240.944,244.815,239.214 C244.243,237.484,244.065,235.85,244.283,234.313 C244.409,233.417,244.67,232.662,245.065,232.048 C245.459,231.434,245.937,230.946,246.497,230.584 C247.056,230.223,247.672,229.991,248.342,229.89 C249.012,229.789,249.676,229.785,250.332,229.877 C251.934,230.104,253.529,230.754,255.118,231.827 C256.706,232.901,258.215,234.257,259.644,235.896 C261.072,237.535,262.385,239.378,263.582,241.426 C264.779,243.473,265.784,245.599,266.597,247.804 C267.41,250.009,267.99,252.206,268.337,254.394 C268.683,256.583,268.721,258.637,268.449,260.559 C268.291,261.679,268.057,262.626,267.747,263.399 C267.437,264.171,267.089,264.784,266.704,265.235 C266.319,265.687,265.899,266.004,265.445,266.184 C264.991,266.365,264.541,266.424,264.095,266.361 C263.517,266.279,263.05,266.034,262.693,265.624 C262.335,265.214,262.066,264.8,261.884,264.383 C262.089,264.444,262.244,264.491,262.346,264.522 C262.449,264.552,262.605,264.583,262.815,264.612 C263.209,264.668,263.675,264.644,264.211,264.54 C264.748,264.436,265.264,264.199,265.758,263.828 C266.252,263.457,266.7,262.941,267.102,262.279 C267.503,261.617,267.781,260.742,267.935,259.653 C268.265,257.315,268.092,254.988,267.415,252.672 C266.738,250.355,265.802,248.173,264.605,246.126 C263.408,244.079,262.066,242.207,260.578,240.511 C259.091,238.815,257.706,237.386,256.424,236.225 C256.424,236.225,256.41,236.321,256.41,236.321 z"/>
        </defs>
        <use xlink:href="#25" style="fill:#808080;fill-opacity:1;fill-rule:nonzero;opacity:1;stroke:none;"/>
      </g>
    </defs>
    <use xlink:href="#24"/>
    <defs>
      <title>Text Copy 1</title>
      <g id="26">
        <defs>
          <path id="27" d="M249.859,109.319 C249.859,109.319,249.856,109.212,249.856,109.212 C249.274,108.853,248.662,108.442,248.02,107.979 C247.378,107.516,246.726,107.014,246.065,106.473 C245.405,105.932,244.755,105.374,244.118,104.798 C243.481,104.223,242.884,103.655,242.329,103.096 C242.329,103.096,242.491,102.765,242.491,102.765 C244.378,104.763,246.401,106.503,248.559,107.986 C250.717,109.468,252.841,110.774,254.931,111.904 C254.931,111.904,254.937,112.118,254.937,112.118 C253.575,111.865,251.966,111.564,250.111,111.217 C248.257,110.87,246.365,110.53,244.437,110.197 C242.509,109.864,240.64,109.563,238.828,109.295 C237.016,109.027,235.464,108.851,234.172,108.767 C234.172,108.767,231.691,106.018,231.691,106.018 C231.691,106.018,249.859,109.319,249.859,109.319 z M253.947,127.43 C253.947,127.43,257.067,131.918,257.067,131.918 C257.067,131.918,256.6,131.861,256.6,131.861 C256.6,131.861,253.48,127.373,253.48,127.373 C253.48,127.373,246.343,126.169,246.343,126.169 C246.343,126.169,244.313,123.761,244.313,123.761 C244.313,123.761,251.945,125.166,251.945,125.166 C251.945,125.166,245.065,115.271,245.065,115.271 C245.065,115.271,267.926,126.55,267.926,126.55 C267.926,126.55,268.591,127.506,268.591,127.506 C268.591,127.506,246.268,116.182,246.268,116.182 C246.268,116.182,246.172,116.248,246.172,116.248 C246.172,116.248,252.412,125.223,252.412,125.223 C252.412,125.223,265.116,127.576,265.116,127.576 C265.116,127.576,266.718,129.573,266.718,129.573 C266.718,129.573,253.947,127.43,253.947,127.43 z"/>
        </defs>
        <use xlink:href="#27" style="fill:#e4e4e4;fill-opacity:1;fill-rule:nonzero;opacity:1;stroke:none;"/>
      </g>
    </defs>
    <use xlink:href="#26"/>
    <defs>
      <title>Text Copy</title>
      <g id="28">
        <defs>
          <path id="29" d="M126.355,249.16 C126.355,249.16,126.393,249.336,126.393,249.336 C127.488,249.489,128.65,249.706,129.878,249.987 C131.107,250.267,132.363,250.605,133.647,251.002 C134.931,251.398,136.2,251.832,137.455,252.304 C138.709,252.776,139.892,253.267,141.003,253.776 C141.003,253.776,140.83,254.453,140.83,254.453 C137.025,252.563,133.069,251.209,128.964,250.389 C124.858,249.568,120.863,249.017,116.979,248.736 C116.979,248.736,116.903,248.383,116.903,248.383 C119.287,247.76,122.102,247.025,125.349,246.181 C128.595,245.336,131.902,244.451,135.267,243.526 C138.633,242.602,141.891,241.667,145.04,240.724 C148.189,239.78,150.87,238.882,153.084,238.029 C153.084,238.029,158.123,240.718,158.123,240.718 C158.123,240.718,126.355,249.16,126.355,249.16 z M133.221,231.178 C132.155,232.567,130.768,233.772,129.062,234.793 C127.355,235.813,125.463,236.642,123.385,237.28 C121.308,237.918,119.135,238.361,116.867,238.607 C114.599,238.854,112.359,238.876,110.146,238.675 C107.933,238.473,105.847,238.05,103.888,237.405 C101.928,236.76,100.221,235.88,98.7674,234.764 C97.6042,233.872,96.732,232.958,96.151,232.021 C95.57,231.085,95.2382,230.144,95.1557,229.198 C95.0731,228.252,95.2039,227.31,95.548,226.372 C95.892,225.434,96.4075,224.518,97.0944,223.622 C98.0656,222.356,99.3959,221.243,101.085,220.283 C102.775,219.323,104.652,218.531,106.718,217.909 C108.783,217.286,110.968,216.866,113.273,216.647 C115.577,216.428,117.847,216.404,120.084,216.575 C122.32,216.746,124.43,217.138,126.413,217.752 C128.396,218.366,130.115,219.231,131.569,220.347 C133.714,221.992,134.863,223.768,135.016,225.676 C135.169,227.584,134.571,229.418,133.221,231.178 z M130.091,228.483 C130.612,227.804,131.046,227.106,131.393,226.391 C131.739,225.676,131.936,224.968,131.982,224.268 C132.028,223.568,131.913,222.891,131.635,222.236 C131.357,221.582,130.837,220.962,130.074,220.376 C128.292,219.01,126.057,218.141,123.368,217.77 C120.679,217.399,117.898,217.486,115.027,218.03 C112.156,218.574,109.379,219.558,106.698,220.984 C104.016,222.409,101.823,224.233,100.117,226.456 C99.5962,227.135,99.1805,227.847,98.8704,228.59 C98.5602,229.333,98.4124,230.09,98.4269,230.861 C98.4414,231.633,98.6329,232.38,99.0013,233.104 C99.3698,233.829,99.9902,234.525,100.863,235.195 C102.462,236.422,104.579,237.163,107.213,237.417 C109.847,237.672,112.584,237.492,115.424,236.875 C118.265,236.258,121.011,235.238,123.662,233.814 C126.314,232.39,128.457,230.613,130.091,228.483 z"/>
        </defs>
        <use xlink:href="#29" style="fill:#7f7f7f;fill-opacity:1;fill-rule:nonzero;opacity:1;stroke:none;"/>
      </g>
    </defs>
    <use xlink:href="#28"/>
    <defs>
      <title>Text Copy 1</title>
      <g id="30">
        <defs>
          <path id="31" d="M86.3876,192.785 C86.3876,192.785,86.4371,192.927,86.4371,192.927 C86.7991,192.271,87.195,191.628,87.6246,190.997 C88.0542,190.366,88.5047,189.771,88.976,189.211 C89.4473,188.65,89.9224,188.137,90.4014,187.672 C90.8803,187.206,91.3416,186.81,91.7854,186.485 C91.7854,186.485,91.8799,187.262,91.8799,187.262 C90.3284,188.235,88.8473,189.833,87.4368,192.054 C86.0263,194.275,84.7074,196.673,83.48,199.249 C83.48,199.249,83.3809,198.966,83.3809,198.966 C83.962,196.62,84.6487,193.851,85.4411,190.66 C86.2334,187.468,87.0349,184.195,87.8457,180.839 C88.6565,177.484,89.4328,174.198,90.1745,170.983 C90.9162,167.768,91.5272,164.939,92.0074,162.498 C92.0074,162.498,94.1026,161.388,94.1026,161.388 C94.1026,161.388,86.3876,192.785,86.3876,192.785 z M74.5156,173.343 C74.7825,171.981,75.0878,170.585,75.4316,169.153 C75.7754,167.722,76.1646,166.42,76.5992,165.248 C77.0338,164.076,77.5173,163.116,78.0497,162.369 C78.5821,161.621,79.1619,161.25,79.789,161.256 C80.128,161.259,80.4689,161.509,80.8118,162.006 C81.1547,162.503,81.5102,163.012,81.8783,163.533 C82.2464,164.054,82.6231,164.551,83.0086,165.025 C83.3941,165.499,83.8072,165.738,84.2479,165.742 C84.7394,165.747,85.1525,165.527,85.4871,165.083 C85.8218,164.64,86.0934,164.137,86.302,163.574 C86.5106,163.012,86.6807,162.496,86.8122,162.027 C86.9436,161.557,87.0517,161.323,87.1365,161.324 C87.2212,161.325,87.2672,161.396,87.2744,161.537 C87.2815,161.678,87.2842,161.843,87.2825,162.031 C87.2755,162.783,86.6736,164.177,85.4767,166.212 C84.2798,168.247,82.4553,170.782,80.0032,173.817 C78.8372,175.264,77.8834,176.667,77.142,178.024 C76.4006,179.381,75.82,180.751,75.4004,182.135 C74.9808,183.519,74.6884,184.892,74.5232,186.255 C74.358,187.617,74.2687,189.027,74.2552,190.485 C74.233,192.884,74.4395,194.838,74.8747,196.347 C75.3099,197.857,75.9598,198.615,76.8242,198.623 C77.1971,198.627,77.5844,198.442,77.9862,198.069 C78.388,197.697,78.7533,197.148,79.082,196.422 C79.4108,195.695,79.6859,194.816,79.9074,193.783 C80.1288,192.751,80.2457,191.576,80.2578,190.259 C80.2692,189.036,80.1395,187.941,79.8687,186.974 C79.598,186.008,79.2423,185.522,78.8016,185.518 C78.5982,185.516,78.4323,185.585,78.3039,185.725 C78.1754,185.865,78.0169,186.052,77.8283,186.285 C77.8283,186.285,77.7286,186.073,77.7286,186.073 C77.9237,185.134,78.1849,184.383,78.5122,183.822 C78.8394,183.261,79.2065,182.982,79.6132,182.986 C80.1387,182.99,80.5537,183.476,80.8583,184.443 C81.163,185.411,81.3077,186.717,81.2924,188.363 C81.2811,189.586,81.1633,190.867,80.939,192.205 C80.7148,193.544,80.394,194.776,79.9768,195.901 C79.5595,197.026,79.0509,197.95,78.451,198.673 C77.851,199.397,77.1696,199.755,76.4069,199.748 C75.7459,199.742,75.1763,199.478,74.698,198.956 C74.2197,198.434,73.8234,197.76,73.509,196.934 C73.1946,196.108,72.966,195.165,72.8232,194.106 C72.6805,193.046,72.6141,191.975,72.6241,190.894 C72.6455,188.589,72.855,186.557,73.2527,184.796 C73.6504,183.036,74.1734,181.465,74.8219,180.084 C75.4703,178.702,76.2107,177.462,77.0429,176.365 C77.8752,175.267,78.7282,174.217,79.602,173.213 C80.4758,172.21,81.337,171.195,82.1855,170.168 C83.0341,169.141,83.8032,167.996,84.493,166.732 C84.493,166.732,84.4447,166.45,84.4447,166.45 C84.187,166.824,83.921,167.174,83.6468,167.501 C83.3726,167.827,83.0744,167.989,82.7524,167.986 C82.4642,167.984,82.1229,167.78,81.7283,167.377 C81.3337,166.973,80.9267,166.535,80.5073,166.06 C80.1049,165.586,79.7107,165.136,79.3248,164.709 C78.9389,164.282,78.6103,164.067,78.3391,164.065 C77.9493,164.061,77.5691,164.387,77.1986,165.042 C76.8281,165.697,76.486,166.494,76.1722,167.431 C75.8584,168.369,75.5735,169.39,75.3175,170.493 C75.0615,171.596,74.8533,172.57,74.6929,173.415 C74.6929,173.415,74.5156,173.343,74.5156,173.343 z"/>
        </defs>
        <use xlink:href="#31" style="fill:#b3b3b3;fill-opacity:1;fill-rule:nonzero;opacity:1;stroke:none;"/>
      </g>
    </defs>
    <use xlink:href="#30"/>
    <defs>
      <title>Text Copy</title>
      <g id="32">
        <defs>
          <path id="33" d="M199.288,196.859 C200.575,195.131,201.172,193.401,201.078,191.671 C200.985,189.942,200.247,188.264,198.862,186.638 C197.389,184.908,195.782,183.856,194.041,183.484 C192.299,183.113,190.747,183.507,189.383,184.668 C188.046,185.806,187.388,187.238,187.408,188.962 C187.428,190.686,188.142,192.373,189.548,194.025 C190.53,195.179,191.606,196.084,192.775,196.74 C193.944,197.395,195.116,198.002,196.293,198.561 C197.47,199.12,198.626,199.707,199.761,200.324 C200.896,200.94,201.933,201.799,202.87,202.9 C203.741,203.923,204.342,205.028,204.675,206.215 C205.007,207.402,205.088,208.599,204.917,209.807 C204.747,211.015,204.354,212.186,203.738,213.322 C203.121,214.457,202.289,215.471,201.24,216.364 C200.348,217.123,199.382,217.674,198.34,218.018 C197.299,218.362,196.255,218.504,195.21,218.445 C194.164,218.385,193.148,218.108,192.162,217.614 C191.175,217.119,190.303,216.426,189.544,215.535 C188.494,214.303,187.825,212.972,187.537,211.545 C187.249,210.117,187.26,208.682,187.571,207.242 C187.882,205.801,188.439,204.423,189.24,203.107 C190.042,201.791,191.02,200.642,192.174,199.659 C191.402,199.231,190.663,198.775,189.957,198.291 C189.251,197.806,188.607,197.223,188.027,196.542 C187.179,195.545,186.606,194.461,186.309,193.289 C186.013,192.117,185.96,190.94,186.153,189.759 C186.346,188.577,186.747,187.455,187.358,186.392 C187.968,185.33,188.746,184.397,189.689,183.593 C191.499,182.053,193.354,181.39,195.254,181.603 C197.155,181.817,198.864,182.815,200.382,184.598 C201.163,185.516,201.688,186.517,201.955,187.601 C202.222,188.685,202.287,189.784,202.148,190.896 C202.01,192.009,201.721,193.103,201.28,194.179 C200.84,195.256,200.302,196.245,199.668,197.146 C199.668,197.146,199.288,196.859,199.288,196.859 z M191.266,213.255 C191.935,214.041,192.701,214.701,193.562,215.235 C194.423,215.768,195.323,216.121,196.262,216.294 C197.201,216.467,198.149,216.44,199.108,216.211 C200.067,215.983,200.966,215.511,201.805,214.797 C202.697,214.038,203.285,213.255,203.57,212.447 C203.854,211.639,203.926,210.821,203.785,209.991 C203.644,209.161,203.331,208.342,202.846,207.534 C202.362,206.725,201.807,205.954,201.182,205.22 C200.065,203.909,198.749,202.881,197.233,202.136 C195.718,201.391,194.217,200.679,192.733,199.998 C190.317,202.1,188.949,204.225,188.63,206.374 C188.311,208.523,189.19,210.816,191.266,213.255 z"/>
        </defs>
        <use xlink:href="#33" style="fill:#b2b2b2;fill-opacity:1;fill-rule:nonzero;opacity:1;stroke:none;"/>
      </g>
    </defs>
    <use xlink:href="#32"/>
    <defs>
      <title>Text Copy 1</title>
      <g id="34">
        <defs>
          <path id="35" d="M281.497,169.035 C280.825,168.245,280.2,167.638,279.625,167.213 C279.049,166.789,278.606,166.709,278.295,166.974 C277.94,167.276,277.854,167.869,278.039,168.752 C278.224,169.634,278.575,170.636,279.091,171.755 C279.608,172.875,280.234,174.019,280.968,175.187 C281.702,176.355,282.44,177.376,283.184,178.249 C284.865,180.224,285.968,180.989,286.492,180.543 C286.759,180.316,286.855,179.831,286.781,179.087 C286.707,178.343,286.455,177.436,286.027,176.366 C285.599,175.297,285.007,174.124,284.251,172.85 C283.495,171.575,282.577,170.303,281.497,169.035 z M285.915,175.601 C286.172,176.172,286.399,176.749,286.597,177.333 C286.796,177.917,286.937,178.47,287.02,178.99 C287.104,179.511,287.114,179.978,287.051,180.39 C286.988,180.802,286.828,181.117,286.571,181.337 C286.162,181.684,285.592,181.64,284.861,181.205 C284.131,180.769,283.34,180.052,282.491,179.055 C281.57,177.973,280.757,176.766,280.049,175.431 C279.342,174.097,278.79,172.819,278.393,171.597 C277.996,170.375,277.765,169.289,277.701,168.341 C277.636,167.392,277.785,166.762,278.15,166.452 C278.656,166.021,279.319,166.049,280.138,166.534 C280.957,167.02,281.819,167.793,282.721,168.853 C283.836,170.163,284.909,171.661,285.939,173.348 C286.969,175.035,287.906,176.784,288.75,178.593 C289.594,180.403,290.327,182.218,290.949,184.037 C291.571,185.856,292.016,187.539,292.284,189.086 C292.551,190.633,292.627,191.995,292.509,193.17 C292.392,194.346,292.027,195.195,291.414,195.716 C291.094,195.989,290.719,196.155,290.289,196.217 C289.859,196.278,289.409,196.24,288.939,196.102 C288.47,195.964,287.991,195.726,287.504,195.388 C287.017,195.05,286.552,194.62,286.109,194.101 C285.72,193.643,285.415,193.186,285.194,192.729 C284.973,192.271,284.903,191.865,284.983,191.509 C285.107,191.691,285.224,191.851,285.335,191.99 C285.445,192.129,285.598,192.313,285.793,192.541 C286.306,193.144,286.833,193.655,287.373,194.074 C287.913,194.492,288.429,194.806,288.921,195.015 C289.413,195.224,289.87,195.319,290.291,195.301 C290.712,195.283,291.069,195.149,291.362,194.9 C291.824,194.507,292.091,193.903,292.164,193.088 C292.236,192.273,292.167,191.319,291.956,190.226 C291.745,189.133,291.421,187.947,290.984,186.669 C290.548,185.392,290.051,184.102,289.494,182.801 C288.938,181.499,288.351,180.225,287.732,178.976 C287.113,177.728,286.517,176.595,285.942,175.578 C285.942,175.578,285.915,175.601,285.915,175.601 z"/>
        </defs>
        <use xlink:href="#35" style="fill:#b1b1b1;fill-opacity:1;fill-rule:nonzero;opacity:1;stroke:none;"/>
      </g>
    </defs>
    <use xlink:href="#34"/>
    <defs>
      <title>Text Copy 1</title>
      <g id="36">
        <defs>
          <path id="37" d="M125.009,113.862 C125.788,114.014,126.594,114.208,127.428,114.443 C128.262,114.677,129.039,114.981,129.76,115.353 C130.48,115.726,131.102,116.181,131.624,116.719 C132.147,117.256,132.484,117.895,132.635,118.633 C132.717,119.033,132.67,119.463,132.494,119.926 C132.318,120.388,132.139,120.867,131.957,121.362 C131.775,121.857,131.608,122.359,131.455,122.869 C131.301,123.379,131.278,123.893,131.384,124.412 C131.503,124.991,131.72,125.451,132.034,125.792 C132.349,126.134,132.679,126.394,133.025,126.572 C133.371,126.751,133.683,126.89,133.961,126.989 C134.239,127.088,134.388,127.187,134.408,127.287 C134.429,127.387,134.403,127.45,134.331,127.475 C134.259,127.5,134.173,127.523,134.074,127.543 C133.679,127.624,132.801,127.081,131.441,125.914 C130.081,124.747,128.305,122.901,126.112,120.376 C125.067,119.175,124.099,118.219,123.205,117.508 C122.312,116.796,121.452,116.276,120.624,115.946 C119.797,115.616,119.006,115.435,118.252,115.403 C117.498,115.37,116.738,115.432,115.971,115.589 C114.71,115.848,113.738,116.322,113.055,117.014 C112.372,117.705,112.135,118.559,112.343,119.577 C112.433,120.017,112.625,120.451,112.919,120.879 C113.213,121.308,113.591,121.672,114.052,121.973 C114.513,122.274,115.041,122.493,115.636,122.631 C116.231,122.769,116.875,122.768,117.568,122.626 C118.211,122.494,118.752,122.211,119.191,121.778 C119.631,121.345,119.797,120.869,119.691,120.35 C119.642,120.11,119.565,119.923,119.46,119.789 C119.355,119.654,119.218,119.49,119.05,119.295 C119.05,119.295,119.136,119.153,119.136,119.153 C119.676,119.271,120.133,119.489,120.507,119.808 C120.882,120.126,121.118,120.525,121.216,121.004 C121.343,121.623,121.191,122.169,120.76,122.642 C120.328,123.116,119.68,123.441,118.815,123.618 C118.172,123.75,117.472,123.763,116.716,123.658 C115.96,123.553,115.237,123.322,114.545,122.964 C113.853,122.607,113.244,122.118,112.718,121.498 C112.191,120.878,111.836,120.118,111.652,119.22 C111.492,118.441,111.49,117.74,111.646,117.115 C111.801,116.49,112.056,115.944,112.411,115.476 C112.766,115.008,113.204,114.627,113.723,114.334 C114.243,114.04,114.787,113.835,115.356,113.718 C116.568,113.47,117.683,113.475,118.702,113.735 C119.722,113.994,120.673,114.423,121.556,115.022 C122.439,115.621,123.27,116.345,124.05,117.194 C124.829,118.043,125.589,118.923,126.329,119.832 C127.07,120.741,127.813,121.634,128.56,122.511 C129.306,123.387,130.095,124.157,130.926,124.818 C130.926,124.818,131.062,124.728,131.062,124.728 C130.803,124.469,130.554,124.198,130.316,123.914 C130.077,123.63,129.919,123.298,129.841,122.919 C129.772,122.579,129.794,122.154,129.908,121.641 C130.022,121.129,130.152,120.598,130.297,120.048 C130.446,119.519,130.585,119.001,130.713,118.497 C130.842,117.992,130.873,117.58,130.808,117.26 C130.714,116.801,130.45,116.393,130.015,116.034 C129.581,115.676,129.08,115.368,128.512,115.11 C127.944,114.852,127.339,114.638,126.699,114.467 C126.058,114.297,125.497,114.168,125.015,114.079 C125.015,114.079,125.009,113.862,125.009,113.862 z"/>
        </defs>
        <use xlink:href="#37" style="fill:#e5e5e5;fill-opacity:1;fill-rule:nonzero;opacity:1;stroke:none;"/>
      </g>
    </defs>
    <use xlink:href="#36"/>
  </g>
</svg>
